<?xml version="1.0" encoding="utf-8"?>
<!-- Generator: Adobe Illustrator 15.0.2, SVG Export Plug-In . SVG Version: 6.00 Build 0)  -->
<svg version="1.2" baseProfile="tiny" id="Слой_1"
	 xmlns="http://www.w3.org/2000/svg" xmlns:xlink="http://www.w3.org/1999/xlink" x="0px" y="0px" width="100px" height="100px"
	 viewBox="0 0 100 100" xml:space="preserve">
<g>
	<g>
		<path shape-rendering="auto" fill="#2a2a2a" d="M50.34082,3.5C51.06641,3.5,49.61377,3.5,50.34082,3.5l36.8916,22.58496
			c0,0-16.08984,9.08594-15.81152,9.26807c-0.18848-0.18115-21.26074-11.99414-21.26074-11.99414
			c-7.28223,3.98633-21.80713,11.99414-21.80713,11.99414l-15.81104-9.81299L50.34082,3.5z"/>
		<path shape-rendering="auto" fill="#2a2a2a" d="M44.16211,98.59375C43.79883,98.59375,44.52588,98.59375,44.16211,98.59375
			C31.84277,91.46875,18.16602,85.15625,6,77.87695c0-14.53711,0-29.07617,0-43.61377
			c5.6958,3.02588,11.79883,5.646,16.90088,9.26807c0,8.17773,0,16.35449,0,24.5332l21.26123,12.35547
			C44.16211,86.41895,44.16211,92.59766,44.16211,98.59375z"/>
		<path shape-rendering="auto" fill="#2a2a2a" d="M56.15625,98.59375C55.79199,98.59375,56.51953,98.59375,56.15625,98.59375
			c0-6.17773,0-11.99219,0-18.17285c6.7207-4.18262,13.83496-8.33496,20.7168-12.35645c0-8.35938,0-16.71875,0-25.07764
			l16.90039-8.17773c0,14.53809,0,29.07666,0,43.61475C81.38867,84.9375,68.13379,91.6709,56.15625,98.59375z"/>
	</g>
</g>
</svg>
