<svg class="shape-divider-blot" preserveAspectRatio="none" xmlns="http://www.w3.org/2000/svg" viewBox="0 0 2000.4 70.7"><g><path d="M1837 71H0v-9c8 4 20 1 24-7 3-5 5-12 10-13a7 7 0 017 4c2 4 1 9 0 13 3 2 7 0 8-4l1-10c-1-4-2-8 1-11a5 5 0 017-2c2 2 2 6 2 9s1 8 6 7a6 6 0 003-4 8 8 0 013-4 2 2 0 013 3c0 2-1 5 1 7a4 4 0 004 2c3 0 4-4 4-7-1-2-2-5-1-8a4 4 0 011 0c1-3 5 0 4 3a10 10 0 000 6 5 5 0 005 3c3 0 4-3 4-5l-2-7c-3-4-5-8-5-12 0-5 2-11 7-13 4-1 9 1 9 5 1 3 0 5-2 8l-1 2a19 19 0 003 21 7 7 0 007 2c4-1 5-6 4-10V29c1-4 7-5 8-2l2 10c3 3 8 5 11 2a7 7 0 002-5l-3-9-1-4c-2-4-2-9 2-11a7 7 0 018 1c4 3 5 8 3 13v1c-1 4-4 8-3 13a9 9 0 0010 7c4-1 10-5 9-10v-2a33 33 0 00-1-8 42 42 0 00-2-7c-2-5-2-10 2-14 3-3 7-5 11-3a8 8 0 015 4c2 6-3 12-6 18a10 10 0 000 2 13 13 0 002 9c6 8 16 3 17-4a15 15 0 001-5l-1-7c-1-4 1-10 6-10a7 7 0 016 6c1 4 0 7-2 11-2 3-4 7-3 11a8 8 0 002 6c4 4 11 1 15-3 5-3 10-7 15-6 4 1 6 5 7 8 2 4 4 8 7 10a7 7 0 006 1c5-1 5-6 4-10l-4-9c0-4 3-9 7-7a6 6 0 014 4c1 5-2 9-2 14 0 4 4 8 8 5a6 6 0 001-5 104 104 0 001-19V15c0-6 7-9 11-5 3 3 4 7 4 12a23 23 0 01-1 3 50 50 0 01-3 9c-2 4-4 8-3 13 1 6 9 10 13 2a10 10 0 000-6c-1-5-1-12 5-13a6 6 0 015 3c3 4 1 9 2 14 1 3 4 6 8 5 4 0 7-4 7-9l2-12a10 10 0 015-6 6 6 0 015 0 6 6 0 011 0 7 7 0 013 5c1 5-2 9-3 14 0 3 1 7 4 9l2-9c3-4 8-7 12-2a8 8 0 011 3c2 3 1 7 0 11a18 18 0 0015-1l6-3a8 8 0 013 0 8 8 0 012 0l7 3a18 18 0 0015 1c-1-4-2-8-1-11a8 8 0 012-3c4-5 9-2 11 2 2 2 2 6 3 9 3-2 4-6 3-9 0-5-3-9-2-14a7 7 0 012-5c5-3 10 1 12 6l1 12c0 4 4 9 8 9 3 1 6-2 7-5 1-5 0-10 3-14a6 6 0 015-3c5 1 6 8 5 13a10 10 0 000 6c4 8 12 4 13-2 1-5-1-9-3-13s-4-8-4-12 1-9 4-12c4-4 11-1 11 5v29a6 6 0 002 5c3 3 8-1 8-5 0-5-3-9-2-14a6 6 0 014-4c4-2 7 3 6 7l-3 9c-1 4-1 9 3 10a7 7 0 006-1c4-2 6-6 7-10 2-3 4-7 7-8 6-1 11 3 15 6 5 4 11 7 16 3a8 8 0 002-6c0-8-7-14-6-22a7 7 0 016-6c5 0 7 6 7 10s-2 8-1 12c2 7 12 11 18 4a12 12 0 002-11c-3-6-9-12-7-18a8 8 0 015-4c5-2 9 0 12 3 4 4 4 9 2 14a37 37 0 00-3 15v2c-1 5 4 9 9 10a9 9 0 0010-8c1-4-2-9-4-13-1-5 0-10 4-14a7 7 0 018 0c4 2 4 7 2 11-1 4-4 8-4 13a7 7 0 002 4c3 4 8 2 10-2 2-2 2-6 2-9 2-3 7-1 9 2s0 7-1 11c0 4 1 9 5 10a7 7 0 007-2 19 19 0 003-21c-2-3-4-6-4-10 1-4 6-6 10-5 5 2 7 8 7 13l-5 12-2 7c-1 2 1 5 4 5a5 5 0 004-3 10 10 0 000-6c-1-3 3-6 5-3v8c0 3 0 7 3 7a4 4 0 005-2v-7a2 2 0 014-3 8 8 0 013 4 6 6 0 003 4c4 1 6-4 6-7s-1-7 2-8a5 5 0 017 1c3 3 2 7 1 11v10c1 3 6 6 9 4-1-4-2-9 0-13a7 7 0 017-4c5 1 7 8 9 13a13 13 0 0025 0c2-5 4-12 9-13a7 7 0 017 4c2 4 1 9 1 13 2 2 7 0 8-4V45c-1-4-1-8 2-11a5 5 0 016-2c3 2 2 6 2 9s2 8 6 7a6 6 0 004-4 8 8 0 012-4 2 2 0 014 3v7a4 4 0 005 2c3 0 3-4 3-7v-8c2-3 6 0 5 3a10 10 0 000 6 5 5 0 004 3c3 0 5-3 4-5l-2-7-5-12c0-5 2-11 8-13 4-1 8 1 9 5s-2 7-4 10a19 19 0 004 21 7 7 0 006 2c5-1 5-6 5-10-1-4-2-7-1-11s7-5 9-2c0 4 0 7 2 10s7 5 10 1a7 7 0 002-4c0-5-3-9-4-13s-1-9 3-11a7 7 0 017 0c5 4 5 9 4 14-2 4-5 9-4 13a9 9 0 0010 8c5-1 10-6 10-10v-2a37 37 0 00-4-15c-2-5-2-10 2-14 3-3 8-5 12-3a8 8 0 015 4c2 6-4 12-6 18a12 12 0 001 11c6 7 16 3 18-4 1-4-1-8-1-12s2-10 7-10a7 7 0 016 6c2 8-6 14-6 22a8 8 0 002 6c5 4 11 1 16-3s9-7 15-6c3 1 5 5 7 8 2 4 3 8 7 10a7 7 0 006 1c4-1 4-6 3-10l-3-9c0-4 2-9 6-7a6 6 0 014 4c1 5-2 9-2 14 0 4 5 8 8 5a6 6 0 002-5V15c0-6 7-9 11-5h1c3 3 4 7 3 12l-4 12c-2 4-4 8-3 13 1 6 9 10 13 2a10 10 0 000-6c-1-5 0-12 5-13a6 6 0 016 3c2 4 1 9 2 14 1 3 4 6 7 5 4 0 7-4 8-9l1-12c2-5 7-9 12-6a7 7 0 012 5c1 5-1 9-2 14-1 3 0 7 3 9 1-3 1-7 3-9 2-4 7-7 11-2a8 8 0 012 3c1 3 0 7-1 11a18 18 0 0015-1l7-3a16 16 0 015 0l6 3a18 18 0 0015 1c-1-4-2-8 0-11a8 8 0 011-3c4-5 9-2 12 2 2 2 2 6 2 9 3-2 4-6 4-9-1-5-3-9-3-14a7 7 0 013-5c4-3 10 1 11 6l2 12c1 4 3 9 8 9 3 1 6-2 7-5 1-5 0-10 2-14a6 6 0 015-3c6 1 6 8 5 13a10 10 0 001 6c3 8 11 4 12-2 1-5-1-9-3-13l-4-12c-1-4 1-9 4-12 4-4 12-1 12 5s-2 18 0 29a6 6 0 001 5c4 3 8-1 8-5 1-5-2-9-1-14a6 6 0 013-4c4-2 7 3 7 7l-3 9c-2 4-1 9 3 10a7 7 0 006-1c4-2 5-6 7-10 1-3 4-7 7-8 5-1 10 3 15 6s11 7 15 3a8 8 0 003-6c0-8-8-14-6-22a7 7 0 016-6c5 0 7 6 6 10v12c1 7 12 11 17 4a13 13 0 002-11c-3-6-8-12-6-18a8 8 0 015-4c4-2 8 0 11 3 4 4 4 9 2 14a37 37 0 00-3 15v2c0 4 5 9 9 10a9 9 0 0010-8c1-4-2-9-3-13-1-5-1-10 3-14a7 7 0 018 0c4 2 4 7 3 11-2 4-5 8-5 13a7 7 0 002 4c4 4 9 2 11-2l2-9c1-3 7-1 8 2s0 7 0 11c-1 4 0 9 4 10a7 7 0 007-2 19 19 0 003-21c-1-3-4-6-3-10s5-6 9-5c5 2 8 8 7 13 0 4-2 8-4 12-2 2-3 4-3 7 0 2 1 5 5 5a5 5 0 004-3 10 10 0 000-6c-1-3 3-6 5-3v8c-1 3 0 7 3 7a4 4 0 004-2c2-2 1-5 1-7a2 2 0 013-3 8 8 0 013 4 6 6 0 003 4c5 1 6-4 6-7s0-7 2-8a5 5 0 017 1c3 3 2 7 2 11-1 4-2 7 0 10s5 6 8 4c-1-4-2-9 0-13a7 7 0 017-4c6 1 7 8 10 13s9 9 15 9 13-4 16-9c2-5 4-12 9-13a7 7 0 017 4c2 4 1 9 0 13 3 2 7 0 9-4s0-6 0-10c-1-4-2-8 1-11a5 5 0 017-2c3 2 2 6 2 9s1 8 6 7a6 6 0 003-4 8 8 0 013-4 2 2 0 014 3v7a4 4 0 004 2c4 0 4-4 4-7-1-2-2-5 0-8 1-3 5 0 5 2a10 10 0 000 7 5 5 0 004 3c3 0 5-3 4-5l-2-7c-2-4-5-8-5-12 0-5 2-11 7-13 4-1 9 1 10 5 0 4-2 7-4 10a19 19 0 003 21 7 7 0 007 2c4-1 5-6 4-10V29c1-3 7-5 9-2 0 3 0 7 2 10s7 5 10 2a7 7 0 002-5c0-5-3-9-4-13-2-4-2-9 2-11a7 7 0 018 0c4 4 5 9 3 14-1 5-4 9-3 14a9 9 0 0010 7c5-1 10-5 9-10v-2a37 37 0 00-3-15c-2-5-2-10 2-14 3-3 7-5 12-3a8 8 0 015 4c2 6-4 12-7 18a13 13 0 002 11c6 7 16 3 18-4 1-4-1-8-1-12s2-10 6-10a7 7 0 016 6c2 8-5 14-5 22a8 8 0 002 6c5 4 11 1 16-3 4-3 9-7 14-6 4 1 6 5 7 8 2 4 4 8 8 10a7 7 0 006 1c4-1 4-6 3-10-1-3-3-6-3-10-1-3 2-8 6-6a6 6 0 014 4c1 5-2 9-2 14 0 4 5 8 8 5a6 6 0 002-5V15c0-6 7-9 11-5 3 3 4 7 4 12s-2 8-4 12-4 8-3 13 9 10 13 2a10 10 0 000-6c-1-5 0-12 5-13a6 6 0 015 3c3 4 1 9 3 14 0 3 4 6 7 5 4 0 7-4 8-9l1-12c2-5 7-9 11-6a7 7 0 013 5c1 5-2 9-2 14-1 3 0 7 3 9 0-3 1-7 3-9 2-4 7-7 11-2a8 8 0 012 3c1 3 0 7-1 11a18 18 0 0015-1l6-3a8 8 0 013 0 8 8 0 013 0l6 3a18 18 0 0015 1c-1-4-2-8-1-11a8 8 0 012-3c4-5 9-2 12 2l2 9c3-2 4-6 3-9 0-5-3-9-2-14a7 7 0 013-5 6 6 0 011 0 6 6 0 015 0 10 10 0 015 6l2 12c1 4 3 9 7 9 4 1 7-2 8-5 1-5-1-10 2-14a6 6 0 015-3c5 1 6 8 5 13a10 10 0 000 6c4 8 12 3 13-2s-1-9-3-13a50 50 0 01-3-9 24 24 0 01-1-3c0-5 1-9 4-12 4-4 11-1 11 5v10a105 105 0 000 19 6 6 0 002 5c4 3 8-1 8-5 0-5-3-9-2-14a6 6 0 014-4c4-2 7 3 6 7l-3 9c-1 4-1 9 4 10a7 7 0 006-1c3-2 5-6 7-10 1-3 3-7 7-8 5-1 10 3 14 6 3 3 8 5 11 5v27z"></path></g></svg>