<svg class="shape-divider-blot-2" preserveAspectRatio="none" xmlns="http://www.w3.org/2000/svg" viewBox="0 0 2000 78"><g><path d="M1794 41a1 1 0 000-1h-2c0 1 1 2 2 1zM1791 50a2 2 0 001-3c0-1-2-2-3-1a2 2 0 000 2 2 2 0 002 2zM1785 45a2 2 0 002 1c1-1 2-5 1-6a3 3 0 00-1-2 2 2 0 00-2 0 3 3 0 00-1 1 5 5 0 000 5 3 3 0 001 1zM1824 51c2 2 6-1 5-4a4 4 0 00-6-2 3 3 0 00-2 2 4 4 0 003 4zM1881 25c2 1 4-1 4-3a3 3 0 00-4-2 2 2 0 00-1 2 3 3 0 001 3zM1865 55a1 1 0 000-1c1-1-1-1-1-1a1 1 0 00-1 1l2 1zM1461 50a2 2 0 001-3c0-1-2-2-3-1a2 2 0 000 2 2 2 0 002 2zM1464 41a1 1 0 000-1h-2c0 1 1 2 2 1zM1455 45a2 2 0 002 1c1-1 2-5 1-6a2 2 0 00-1-2 2 2 0 00-2 0 3 3 0 00-1 1 5 5 0 000 5 3 3 0 001 1zM1551 25c2 1 4-1 4-3a3 3 0 00-4-2 2 2 0 00-1 2 3 3 0 001 3zM1494 51c2 2 6-1 5-4a4 4 0 00-6-2 3 3 0 00-2 2 4 4 0 003 4zM1535 55a1 1 0 000-1c1-1-1-1-1-1a1 1 0 00-1 1l2 1zM1121 50a2 2 0 001-3c0-1-2-2-3-1a2 2 0 000 2 2 2 0 002 2zM1115 45a2 2 0 001 1c2-1 3-5 2-6a2 2 0 00-1-2 2 2 0 00-2 0 3 3 0 00-1 1 5 5 0 000 5 3 3 0 001 1zM1124 41a1 1 0 000-1h-2c-1 1 1 2 2 1zM1153 51c3 2 7-1 6-4a4 4 0 00-7-2 3 3 0 00-1 2 4 4 0 002 4zM1211 25c2 1 4-1 4-3a3 3 0 00-5-2 2 2 0 00-1 2 3 3 0 002 3zM1195 55a1 1 0 000-1c1-1-1-1-1-1a1 1 0 00-2 1l3 1z"></path><path d="M87 78h1913V53c-5-1-13-15-13-35 0-5 1-8-2-9h-5c-5 3 0 9-2 13 0 3-4 7-7 4l-3-3c-2-1-4 1-4 3-1 4 3 19-2 25-4 5-9 6-12 4-7-3-19-2-23-9-3-4-3-25 1-30 1-2 3-4 3-7 0-5-5-9-10-9a8 8 0 00-3 0c-6 2-9 9-4 15 3 3 5 14 5 21 0 12-7 22-14 30l-14-14a12 12 0 01-2-10c1-6-1-12-7-12-5 1-7 5-6 9a13 13 0 002 5c2 4-2 13-7 15a13 13 0 01-14-3c-4-4-3-8-3-12 0-22 2-27 2-33 0-3-2-7-5-7-7-2-11 2-11 9 1 8 4 10 3 28 0 2-2 4-3 3-2-1-1-6-1-8a4 4 0 00-5-3 4 4 0 00-3 3v10c2 8-5 15-15 13-8-1-12-8-13-25l2-6a6 6 0 00-2-9 9 9 0 00-7-1c-4 2-4 7-3 10a26 26 0 002 3 10 10 0 012 5l-1 12a63 63 0 01-9 15c-8-9-16-12-16-18 1-3 1-6-1-8h-6c-2 2-1 4-1 6 0 5-1 8-6 8-9-2-7-8-7-13l-1-5c-1-1-2 0-3 1-2 1-3 3-5 2-3-1-2-6-1-8a42 42 0 000-7c0-4-4-8-9-8s-8 5-7 9l1 13c-1 6-4 8-7 8-6 0-6-6-10-4-4 1-2 6-4 10-1 1-3 0-4-1s-1-4-2-4c-2 0-1 3-2 5s-3 3-7 2c-5 0-4-7-3-8a5 5 0 011-2c5-5 2-11-5-11-5-1-10 5-7 10s2 10 0 16a3 3 0 00-1-2 9 9 0 00-4-1c-5-1-13-15-13-35 0-5 1-8-2-9h-5c-5 3 0 10-1 13s-5 7-8 4l-3-3c-2-1-4 1-4 3-1 4 3 19-2 25-4 5-9 6-12 4-7-2-19-1-23-9-3-4-3-25 1-30 1-2 3-4 3-7 0-4-5-9-10-9a8 8 0 00-3 0c-6 2-9 9-4 15 3 3 5 14 5 21 0 12-7 22-14 30l-14-14a12 12 0 01-2-10c1-6-1-12-7-12-5 1-7 5-6 9a13 13 0 002 5c2 4-2 13-7 15a13 13 0 01-14-3c-4-4-3-8-3-12 0-22 2-27 2-33 0-3-2-7-5-7-6-2-11 2-10 9 0 8 3 10 3 28 0 2-2 5-4 3-2-1 0-6-1-8a4 4 0 00-5-3 4 4 0 00-3 3c-1 4 0 7 1 10 1 8-6 15-16 13-8-1-12-8-12-25l2-6a6 6 0 00-3-9 9 9 0 00-7 0c-3 1-4 6-3 9a27 27 0 003 3 10 10 0 011 5l-1 12a63 63 0 01-9 15c-8-9-16-12-16-18 1-3 1-6-1-8h-6c-2 2-1 4-1 6 0 5-1 8-6 8-9-2-7-8-7-13l-1-5c-1-1-2 0-4 1-1 1-2 3-4 2-3-1-2-6-1-8a42 42 0 000-7c0-4-4-8-9-8s-8 5-7 9l1 13c-1 6-4 8-7 8-6 0-6-6-10-4-4 1-2 6-4 10-1 1-3 0-4-1s-1-4-2-4c-2 0-1 3-2 5s-4 3-7 2c-5 0-4-7-3-8a5 5 0 011-2c4-5 2-11-5-11-5-1-11 5-8 10 6 10 0 19-6 27l-3-7c0-2 1-5-2-6a9 9 0 00-3-1c-5-1-13-15-13-35 0-5 0-8-2-9h-5c-5 3 0 10-2 13-1 3-4 7-7 4l-3-3c-2-1-4 1-4 3-1 4 3 19-2 25-4 5-9 6-12 4-7-2-19-1-24-9-2-4-2-25 1-30 2-2 4-4 4-7-1-4-5-9-10-9a8 8 0 00-3 0c-6 2-9 9-4 15 3 3 5 14 5 21 0 12-7 22-14 30l-14-14a12 12 0 01-3-10c2-6 0-12-6-12-5 1-7 5-6 9a13 13 0 002 5c2 4-2 13-7 15a13 13 0 01-14-3c-4-4-4-8-4-12 0-22 3-27 3-33 0-3-2-7-5-7-7-2-11 2-11 9 1 8 4 10 3 28 0 2-2 4-3 3-3-1-1-6-2-8a4 4 0 00-4-3 4 4 0 00-3 3v10c1 8-6 15-15 13-8-1-12-8-13-25l2-6a6 6 0 00-3-9 9 9 0 00-6-1c-4 2-4 7-3 10a27 27 0 002 3 10 10 0 012 5c0 5 0 9-2 12a63 63 0 01-8 15c-8-9-16-12-16-18 0-3 1-6-1-8h-6c-2 2-1 4-1 6 0 5-1 8-6 8-9-2-7-8-7-13l-1-5c-1-1-3 0-4 1s-2 3-4 2c-3-1-2-6-2-8a44 44 0 001-7c0-4-4-8-9-8s-8 5-7 9l1 13c-1 6-4 8-7 8-6 0-6-6-10-4-4 1-2 6-4 10-1 1-3 0-4-1s-1-4-2-4c-2 0-1 3-2 5s-4 3-7 2c-5 0-4-7-3-8a5 5 0 011-2c4-5 2-11-5-11-5-1-11 5-8 10 5 8 1 16-4 23-5-7-9-15-4-23 3-5-2-11-8-10-6 0-9 6-4 11a5 5 0 011 2c0 1 1 8-3 9-4 0-6-1-7-3s0-5-2-5-1 2-2 4-3 2-4 1c-3-4-1-9-4-10-5-2-4 4-11 4-3 0-6-2-6-8-1-3 0-10 1-13 0-4-3-8-8-9s-9 4-9 8a44 44 0 001 7c0 2 1 7-1 8-3 1-3-1-5-2-1-1-3-2-4-1v5c-1 5 2 11-8 13-4 0-5-3-5-8 0-2 1-4-2-6h-5c-2 2-2 5-2 8 1 6-7 9-15 18a63 63 0 01-9-15c-1-3-2-7-1-12a10 10 0 011-5 27 27 0 002-3c2-3 1-8-3-9a9 9 0 00-6 0 6 6 0 00-3 9l2 6c0 17-4 24-12 25-10 2-17-5-16-13l1-10a4 4 0 00-3-3 4 4 0 00-5 3c-1 2 1 7-1 8s-4-1-4-3c0-18 2-20 3-28 1-7-4-11-11-9-2 0-5 4-5 7 0 6 3 11 3 33 0 4 1 8-3 12a13 13 0 01-14 3c-5-2-10-11-7-15a13 13 0 002-5c1-4-1-8-6-9-6 0-8 6-7 12a12 12 0 01-3 10l-14 14c-7-8-13-18-14-30 0-7 3-18 5-21 5-6 3-13-4-15a8 8 0 00-2 0c-5 0-10 5-10 9 0 3 2 5 3 7 3 5 3 26 1 30-5 8-16 7-23 9-3 2-8 1-12-4-5-6-2-21-2-25-1-2-2-4-4-3l-3 3c-3 3-7-1-8-4s4-10-1-13h-5c-3 1-3 4-2 9 0 20-8 34-13 35a9 9 0 00-4 1c-2 1-1 4-1 6l-3 7c-6-8-13-17-7-27 3-5-2-11-8-10-6 0-9 6-5 11a5 5 0 012 2c0 1 1 8-4 8-3 1-6 0-6-2-1-2 0-5-2-5s-1 2-2 4-3 2-4 1c-3-4-1-9-4-10-5-2-4 4-11 4-3 0-6-2-6-8-1-3 0-10 1-13 0-4-3-8-8-9s-9 4-9 8a42 42 0 001 7c0 2 1 7-2 8-2 1-3-1-4-2s-3-2-4-1l-1 5c0 5 3 11-7 13-4 0-6-3-6-8 0-2 2-4-1-6h-6l-1 8c0 6-7 9-16 18a63 63 0 01-8-15c-1-3-2-7-1-12a10 10 0 011-5 27 27 0 002-3c2-3 1-8-3-9a9 9 0 00-6 0 6 6 0 00-3 9l2 6c-1 17-4 24-13 25-9 2-16-5-15-13l1-9a4 4 0 00-4-4 4 4 0 00-4 3c-1 2 1 7-1 9-2 1-4-2-4-3-1-19 2-21 3-29 1-7-4-11-11-9-2 1-5 4-5 7 0 6 3 11 3 33 0 4 1 8-4 12a13 13 0 01-13 3c-5-2-10-11-7-15a13 13 0 002-4c1-5-1-9-6-9-6-1-9 5-7 11a12 12 0 01-3 10l-14 14c-7-8-13-18-14-30 0-7 3-18 5-21 5-6 2-13-4-15a8 8 0 00-2 0c-5 0-10 5-10 9 0 3 2 5 3 7 3 5 3 26 1 30-5 8-16 7-23 9-3 2-9 1-12-4-5-6-2-21-3-25 0-2-1-4-4-3l-3 3c-3 3-6-1-7-4s3-10-1-13h-5c-3 1-3 4-3 9 1 20-7 34-12 35a9 9 0 00-4 1 3 3 0 00-1 2c-3-6-3-11 0-16s-2-11-8-10c-6 0-9 6-5 11a5 5 0 012 2c0 1 1 8-4 8-3 1-6 0-6-2-1-2 0-5-2-5s-1 2-2 4-3 2-4 1c-3-4-1-9-4-10-5-2-4 4-11 4-3 0-6-2-6-8-1-3 0-10 1-13 0-4-3-8-8-9s-9 4-9 8a42 42 0 001 7c0 2 1 7-2 8-2 1-3-1-4-2s-3-2-4-1l-1 5c0 5 3 11-7 13-4 0-6-3-6-8 0-2 2-4-1-6h-6l-1 8c0 6-7 9-16 18a63 63 0 01-8-15c-1-3-2-7-1-12a10 10 0 011-5 26 26 0 002-3c2-3 1-8-3-9a9 9 0 00-6 0 6 6 0 00-3 9l2 6c-1 17-4 24-13 25-9 2-16-5-15-13l1-10a4 4 0 00-4-3 4 4 0 00-4 3c-1 2 1 7-1 8s-4-1-4-3c-1-18 2-20 3-28 1-7-4-11-11-9-2 0-5 4-5 7 0 6 3 11 3 33 0 4 1 8-4 12a13 13 0 01-13 3c-5-2-10-11-7-15a13 13 0 002-5c1-4-1-8-6-9-6 0-9 6-7 12a12 12 0 01-3 10L95 66c-7-8-13-18-14-30 0-7 3-18 5-21 5-6 2-13-4-15a8 8 0 00-2 0c-5 0-10 5-10 9 0 3 2 5 3 7 3 5 3 26 1 30-5 8-16 7-23 9-4 2-9 1-12-4-5-6-2-21-3-25 0-2-1-4-4-3l-3 3c-3 3-6-1-7-4s3-10-1-13h-5c-3 1-3 4-3 9 0 20-7 34-12 35H0v25z"></path><path d="M206 40a1 1 0 001 1l2-1a1 1 0 00-1 0h-2zM208 47a2 2 0 001 3 2 2 0 003-2 2 2 0 00-1-2c-1-1-3 0-3 1zM214 46a2 2 0 001-1 3 3 0 001-1 5 5 0 000-5 3 3 0 00-1-1 2 2 0 00-2 0 3 3 0 00-1 2c0 1 0 5 2 6zM135 55l3-1a1 1 0 00-1-1l-2 1a1 1 0 000 1zM119 25a3 3 0 002-3 2 2 0 00-1-2 3 3 0 00-4 2c-1 2 1 4 3 3zM177 51a4 4 0 002-4 3 3 0 00-1-2 4 4 0 00-6 2c-1 3 2 6 5 4zM449 25a3 3 0 002-3 2 2 0 00-1-2 3 3 0 00-4 2c-1 2 1 4 3 3zM465 55l3-1a1 1 0 00-1-1l-2 1a1 1 0 000 1zM536 40a1 1 0 001 1l2-1a1 1 0 00-1 0h-2zM544 46a2 2 0 001-1 3 3 0 001-1 5 5 0 000-5 3 3 0 00-1-1 2 2 0 00-2 0 2 2 0 00-1 2c0 1 0 5 2 6zM507 51a4 4 0 002-4 3 3 0 00-1-2 4 4 0 00-6 2c-1 3 2 6 5 4zM538 47a2 2 0 001 3 2 2 0 003-2 2 2 0 00-1-2c-1-1-3 0-3 1zM876 40a1 1 0 001 1c1 1 2 0 2-1h-3zM884 46a2 2 0 002-1 3 3 0 001-1 5 5 0 00-1-5 3 3 0 00-1-1 2 2 0 00-2 0 2 2 0 00-1 2c0 1 0 5 2 6zM878 47a2 2 0 001 3 2 2 0 003-2 2 2 0 000-2c-2-1-4 0-4 1zM805 55l3-1a1 1 0 00-1-1l-2 1a1 1 0 000 1zM847 51a4 4 0 002-4 3 3 0 00-1-2 4 4 0 00-6 2c-1 3 2 6 5 4zM789 25a3 3 0 002-3 2 2 0 00-1-2 3 3 0 00-4 2c-1 2 1 4 3 3z"></path></g></svg>