<svg class="shape-divider-clouds" xmlns="http://www.w3.org/2000/svg" viewBox="0 -11 288 28" preserveAspectRatio="none"><path d="M288,14.08a10.55,10.55,0,0,0-9.86,4.37,3.58,3.58,0,0,0-4.46,3.4,3.77,3.77,0,0,0-4.19-.58,4.66,4.66,0,0,0-9,1.74h-.08a7.71,7.71,0,0,0-3.62.9c0-.13,0-.26,0-.4a5.15,5.15,0,0,0-9.2-3.2,3.29,3.29,0,0,0-.71-.6A10.55,10.55,0,0,0,235.41,17a4.15,4.15,0,0,0-2.86-1.15,4.2,4.2,0,0,0-4.12,5,3.62,3.62,0,0,0-2.32,3.27,3.77,3.77,0,0,0-4.19-.58,4.66,4.66,0,0,0-9,1.74h-.08a7.71,7.71,0,0,0-3.62.9c0-.13,0-.26,0-.4a5.15,5.15,0,0,0-9.2-3.2,3.18,3.18,0,0,0-5.12.34,6.38,6.38,0,0,0-5.83-1.24A4.14,4.14,0,0,0,184,18.25a10.56,10.56,0,0,0-17.08.19,3.58,3.58,0,0,0-4.46,3.4,3.77,3.77,0,0,0-4.19-.58,4.66,4.66,0,0,0-9,1.74h-.08a7.71,7.71,0,0,0-3.62.9c0-.13,0-.26,0-.4a5.15,5.15,0,0,0-9.2-3.2,3.18,3.18,0,0,0-5.12.34,6.38,6.38,0,0,0-3.61-1.44,10.57,10.57,0,0,0-17.84-1,3.58,3.58,0,0,0-4.46,3.4,3.77,3.77,0,0,0-4.19-.58,4.66,4.66,0,0,0-9,1.74h-.08a7.71,7.71,0,0,0-3.62.9c0-.13,0-.26,0-.4a5.15,5.15,0,0,0-9.2-3.2,3.18,3.18,0,0,0-5.12.34,6.38,6.38,0,0,0-5.83-1.24,4.14,4.14,0,0,0-5.13-3.45,10.56,10.56,0,0,0-17.08.19,3.58,3.58,0,0,0-4.46,3.4,3.77,3.77,0,0,0-4.19-.58,4.66,4.66,0,0,0-9,1.74h-.08a7.71,7.71,0,0,0-3.62.9c0-.13,0-.26,0-.4a5.15,5.15,0,0,0-9.2-3.2,3.18,3.18,0,0,0-5.12.34,6.38,6.38,0,0,0-5.83-1.24A4.2,4.2,0,0,0,.54,13.33a4.16,4.16,0,0,0-.54.05v8.29l.15,0,0,.13-.12,0v6.82H288Z" transform="translate(0 -11.5)"/><path style="fill-opacity: .3;" d="M284.5,15.6c-0.8,0-1.6,0.2-2.2,0.5c-0.9-2.3-3.2-4-5.8-4c-3.5,0-6.3,2.8-6.3,6.3c0,0,0,0,0,0c0,0-0.1,0-0.1,0c-1.8,0-3.4,0.4-4.9,1.2c0-0.2,0.1-0.4,0.1-0.5c0-3.9-3.1-7-7-7c-2.2,0-4.2,1.1-5.4,2.7c-0.3-0.3-0.6-0.6-1-0.8c-2.6-2.8-6.3-4.6-10.5-4.6c-1.8,0-3.5,0.3-5.1,0.9c-1-1-2.4-1.6-3.9-1.6c-3.1,0-5.7,2.5-5.7,5.7c0,0.4,0,0.8,0.1,1.1c-1.8,0.7-3.1,2.4-3.1,4.4c-0.9-0.8-2.1-1.3-3.4-1.3c-0.8,0-1.6,0.2-2.2,0.5c-0.9-2.3-3.2-4-5.8-4c-3.5,0-6.3,2.8-6.3,6.3c0,0,0,0,0,0c0,0-0.1,0-0.1,0c-1.8,0-3.4,0.4-4.9,1.2c0-0.2,0.1-0.4,0.1-0.5c0-3.9-3.1-7-7-7c-2.2,0-4.2,1.1-5.4,2.7c-0.8-0.9-2-1.5-3.3-1.5c-1.5,0-2.9,0.8-3.6,2c-1.5-1.2-3.4-2-5.5-2c-0.8,0-1.6,0.1-2.3,0.3c-0.4-2.7-2.8-4.8-5.6-4.8c-0.5,0-0.9,0.1-1.3,0.2c-2.6-3.5-6.8-5.7-11.4-5.7c-4.8,0-9,2.4-11.6,6c-0.4-0.1-0.7-0.1-1.1-0.1c-2.7,0-4.8,2.1-4.9,4.7c-0.9-0.8-2.1-1.3-3.4-1.3c-0.8,0-1.6,0.2-2.2,0.5c-0.9-2.3-3.2-4-5.8-4c-3.5,0-6.3,2.8-6.3,6.3c0,0,0,0,0,0c0,0-0.1,0-0.1,0c-1.8,0-3.4,0.4-4.9,1.2c0-0.2,0.1-0.4,0.1-0.5c0-3.9-3.1-7-7-7c-2.2,0-4.2,1.1-5.4,2.7c-0.8-0.9-2-1.5-3.3-1.5c-1.5,0-2.9,0.8-3.6,2c-1.3-1.1-3-1.8-4.9-1.9C88.3,9,83.6,6,78.2,6c-4.8,0-9,2.4-11.6,6c-0.4-0.1-0.7-0.1-1.1-0.1c-2.7,0-4.8,2.1-4.9,4.7c-0.9-0.8-2.1-1.3-3.4-1.3c-0.8,0-1.6,0.2-2.2,0.5c-0.9-2.3-3.2-4-5.8-4c-3.5,0-6.3,2.8-6.3,6.3c0,0,0,0,0,0c0,0-0.1,0-0.1,0c-1.8,0-3.4,0.4-4.9,1.2c0-0.2,0.1-0.4,0.1-0.5c0-3.9-3.1-7-7-7c-2.2,0-4.2,1.1-5.4,2.7c-0.8-0.9-2-1.5-3.3-1.5c-1.5,0-2.9,0.8-3.6,2c-1.5-1.2-3.4-2-5.5-2c-0.8,0-1.6,0.1-2.3,0.3C10.2,10.6,7.9,8.5,5,8.5c-0.5,0-0.9,0.1-1.3,0.2C2.7,7.3,1.4,6.1,0,5.2v23.5h288V16c-0.1,0.3-0.1,0.6-0.1,0.8C287,16.1,285.8,15.6,284.5,15.6z" transform="translate(0 -11.5)"/><path style="fill-opacity: .3;" d="M288,10.3c-0.4-0.1-0.8-0.1-1.3-0.1c-3.7,0-6.6,3-6.6,6.6c0,0,0,0,0,0c0,0-0.1,0-0.1,0c-1.9,0-3.6,0.5-5.2,1.3c0-0.2,0.1-0.4,0.1-0.6c0-4.1-3.3-7.3-7.3-7.3c-2.3,0-4.4,1.1-5.7,2.8c-0.3-0.3-0.6-0.6-1-0.9c-2.7-3-6.7-4.8-11-4.8c-1.9,0-3.7,0.3-5.3,1c-1.1-1-2.5-1.6-4.1-1.6c-3.3,0-6,2.7-6,6c0,0.4,0,0.8,0.1,1.2c-1.9,0.7-3.2,2.5-3.3,4.6c-1-0.8-2.2-1.4-3.6-1.4c-0.8,0-1.6,0.2-2.4,0.5c-1-2.4-3.4-4.2-6.1-4.2c-3.7,0-6.6,3-6.6,6.6c0,0,0,0,0,0c0,0-0.1,0-0.1,0c-1.9,0-3.6,0.5-5.2,1.3c0-0.2,0.1-0.4,0.1-0.6c0-4.1-3.3-7.3-7.3-7.3c-2.3,0-4.4,1.1-5.7,2.8c-0.8-1-2.1-1.6-3.5-1.6c-1.6,0-3,0.8-3.8,2.1c-1.6-1.3-3.6-2.1-5.8-2.1c-0.9,0-1.7,0.1-2.5,0.3c-0.4-2.9-2.9-5.1-5.9-5.1c-0.5,0-1,0.1-1.4,0.2c-2.7-3.7-7.1-6-12-6c-5.1,0-9.5,2.5-12.2,6.3c-0.4-0.1-0.8-0.2-1.2-0.2c-2.8,0-5.1,2.2-5.1,5c-1-0.8-2.2-1.4-3.6-1.4c-0.8,0-1.6,0.2-2.4,0.5c-1-2.4-3.4-4.2-6.1-4.2c-3.7,0-6.6,3-6.6,6.6c0,0,0,0,0,0c0,0-0.1,0-0.1,0c-1.9,0-3.6,0.5-5.2,1.3c0-0.2,0.1-0.4,0.1-0.6c0-4.1-3.3-7.3-7.3-7.3c-2.3,0-4.4,1.1-5.7,2.8c-0.8-1-2.1-1.6-3.5-1.6c-1.6,0-3,0.8-3.8,2.1c-1.4-1.2-3.2-1.9-5.1-2c-2.6-4.6-7.5-7.7-13.1-7.7c-5.1,0-9.5,2.5-12.2,6.3c-0.4-0.1-0.8-0.2-1.2-0.2c-2.8,0-5.1,2.2-5.1,5c-1-0.8-2.2-1.4-3.6-1.4c-0.8,0-1.6,0.2-2.4,0.6c-1-2.4-3.4-4.2-6.1-4.2c-3.7,0-6.6,3-6.6,6.6c0,0,0,0,0,0c0,0-0.1,0-0.1,0c-1.9,0-3.6,0.5-5.2,1.3c0-0.2,0.1-0.4,0.1-0.6c0-4.1-3.3-7.3-7.3-7.3c-2.3,0-4.4,1.1-5.7,2.8c-0.8-1-2.1-1.6-3.5-1.6c-1.6,0-3,0.8-3.8,2.1c-1.6-1.3-3.6-2.1-5.8-2.1c-0.9,0-1.7,0.1-2.5,0.3C6.5,8.5,4,6.3,1,6.3c-0.3,0-0.7,0-1,0.1v22.3h288V10.3z" transform="translate(0 -11.5)"/></svg>