<svg class="shape-divider-grunge" xmlns="http://www.w3.org/2000/svg" viewBox="0 0 1280 240.1" preserveAspectRatio="none">
<g transform="translate(0.000000,717.000000) scale(0.100000,-0.100000)">
	<path d="M10423.4,7156.5c-2.2-2,3.3-16,12.1-33c17.7-32,51.9-38,86.1-15c17.7,11,18.8,17,7.7,29
		C10517.2,7150.5,10433.3,7165.5,10423.4,7156.5z"/>
	<path d="M5416,7112.5c-36.4-9-41.9-14-41.9-38c0-16,3.3-31,8.8-33c4.4-3,34.2,4,66.2,15c48.6,16,58.5,24,55.2,41
		C5499.9,7123.5,5475.6,7127.5,5416,7112.5z"/>
	<path d="M10549.2,7070.5c-9.9-12-7.7-21,12.1-45c30.9-38,76.1-41,109.2-9l23.2,22l-47.4,23
		C10590,7087.5,10567.9,7089.5,10549.2,7070.5z"/>
	<path d="M12698.3,4769.5c0,18,0.6,49-7.1,60c-19.9,27-16.6,127,3.3,133c9.9,3,2.2,11-22.1,21c-25.4,11-37.5,23-37.5,38
		c0,27-30.9,58-100.4,98c-48.6,29-103.7,81-103.7,99c0,3,6.6,6,14.3,6s19.9,9,27.6,20c7.7,11,21,20,29.8,20s16.6,5,16.6,10
		c0,6-13.2,10-28.7,10c-25.4,0-27.6,3-22.1,24c6.6,25-8.8,44-21,26c-3.3-5-11-10-17.7-10c-15.4,0-12.1,34,6.6,56
		c23.2,28,21,46-7.7,42c-19.9-2-26.5,3-28.7,22c-2.2,14-12.1,33-21,42c-11,11-15.4,29-12.1,49c8.8,55-11,117-46.3,139
		c-17.7,11-33.1,30-35.3,42c-2.2,14-14.3,25-30.9,29c-23.2,6-24.3,7-5.5,9c12.1,1,49.7,1,82.8,0c65.1-2,107-26,139-81
		c11-20,28.7-30,72.8-39c32-7,70.6-14,86.1-15c41.9-3,44.1-4,44.1-19s-48.5-30-69.5-21c-7.7,4-3.3-1,7.7-9c25.4-18,78.3-23,158.9-14
		c18.8,2,16.6,63-2.2,77c-8.8,7-37.5,14-64,16c-88.3,7-132.4,17-137.9,31c-3.3,8-13.2,14-21,14c-17.7,0-36.4,37-34.2,66
		c2.2,13-5.5,20-25.4,22c-15.4,2-40.8,8-57.4,13c-19.9,8-35.3,7-50.8,0c-19.9-9-23.2-8-26.5,12c-2.2,17-12.1,23-47.4,27
		c-28.7,3-45.2,11-47.4,21c-2.2,13,11,17,70.6,23c79.4,7,109.2-3,98.2-35c-7.7-22-2.2-23,28.7-8c28.7,13,61.8,3,70.6-22
		c5.5-14,12.1-17,25.4-10c12.1,6,43,3,87.2-7c37.5-9,72.8-12,77.2-8c4.4,5,2.2,11-5.5,13c-24.3,8-79.4,54-79.4,67
		c0,7-18.8,22-40.8,34c-109.2,57-157.8,122-80.6,107c28.7-6,35.3-2,59.6,34c15.4,21,37.5,42,50.8,46c57.4,16-2.2,49-71.7,39
		c-36.4-4-49.7-3-49.7,6s-3.3,10-14.3,1c-8.8-6-18.8-8-22.1-4c-14.3,12-7.7,34,12.1,40c9.9,3,35.3,17,55.2,30l36.4,24l-34.2,39
		c-32,36-38.6,39-97.1,42c-61.8,3-62.9,3-85,46c-16.6,32-29.8,44-54.1,49c-17.7,3-34.2,14-37.5,25c-5.5,22-30.9,18-26.5-5
		s-14.3-29-46.3-16c-27.6,12-38.6,29-19.9,29c9.9,0,35.3,44,35.3,59s-87.2,63-104.8,57c-23.2-8-34.2-4-29.8,11c2.2,7-8.8,17-23.2,22
		c-36.4,13-46.3,38-17.7,46c14.3,4,34.2-2,57.4-18c35.3-24,100.4-57,112.5-57c3.3,0,1.1,9-5.5,21c-17.7,29-9.9,32,30.9,13
		c19.9-8,41.9-14,49.7-11c23.2,7-58.5,38-111.4,43c-49.7,5-93.8,24-54.1,24c64,0-39.7,51-158.9,79c-40.8,9-80.5,22-89.4,29
		c-8.8,6-51.9,15-96,18c-43,4-81.7,11-85,15c-3.3,5-35.3,9-70.6,9c-40.8,0-70.6,5-79.4,14c-11,9-22.1,11-33.1,5
		c-12.1-6-26.5-2-48.6,13c-23.2,17-47.4,23-91.6,24c-75,1-104.8-10-97.1-37c6.6-24-23.2-39-36.4-19c-9.9,15-76.1,6-123.6-16
		c-34.2-16-36.4-22-17.7-58c9.9-21,8.8-29-5.5-44c-19.9-20-25.4-72-7.7-72c6.6,0,11,5,11,10c0,17,22.1,11,62.9-17l38.6-27l-23.2-17
		c-16.6-12-35.3-16-60.7-12c-28.7,4-43,0-60.7-16c-12.1-11-30.9-21-39.7-21c-12.1,0-11-5,6.6-21c21-19,22.1-23,6.6-36
		c-19.9-18-40.8-9-40.8,18c0,15-7.7,19-41.9,19c-23.2,0-51.9,7-64,15c-28.7,20-45.2,19-78.3-5c-38.6-27-61.8-25-143.4,11
		c-78.3,35-105.9,64-69.5,74c28.7,8,61.8,63,46.3,77c-6.6,6-40.8,14-76.1,18s-53,8-39.7,9c32,1,58.5,27,58.5,56c0,12,8.8,33,21,46
		c19.9,22,19.9,24-1.1,58c-21,36-58.5,71-75,71c-4.4,0-33.1-15-61.8-34c-51.9-32-54.1-35-50.8-75c4.4-49-13.2-60-65.1-41
		c-66.2,25-172.1-50-132.4-94c7.7-8,9.9-31,5.5-60l-7.7-47l-58.5,5c-33.1,3-73.9,12-92.7,21c-40.8,19-89.4,19-139,0
		c-23.2-8-51.9-12-72.8-8c-24.3,4-32,3-26.5-5c4.4-7,16.6-12,28.7-12c21,0,33.1-19,33.1-51c0-25,49.7-36,92.7-19
		c55.2,21,89.4,18,92.7-7c3.3-21,30.9-35,101.5-51c32-7,37.5-12,38.6-38c0-24-4.4-29-29.8-32c-17.7-2-30.9-7-30.9-12s-21-15-45.2-22
		c-40.8-11-47.4-10-60.7,7c-8.8,10-15.4,24-15.4,31c0,16-93.8,35-147.9,29c-24.3-2-71.7-17-105.9-34c-57.4-27-65.1-28-80.6-14
		c-9.9,9-25.4,13-35.3,9c-29.8-10-1.1-32,51.9-40c51.9-8,86.1-30,86.1-56c0-9,4.4-20,9.9-25c5.5-6,12.1-23,14.3-40
		c3.3-28,6.6-30,56.3-33c59.6-4,85,9,85,43c0,18,4.4,22,22.1,18c17.7-4,22.1-1,19.9,18c-4.4,34,30.9,36,102.6,4
		c33.1-14,69.5-24,81.7-21c17.7,4,25.4-2,35.3-31c11-32,9.9-39-5.5-50c-16.6-11-16.6-14-2.2-23c23.2-14,33.1-12,39.7,5
		c7.7,18,103.7,78,112.5,70c3.3-3,1.1-10-6.6-17c-8.8-8-6.6-17,5.5-35c11-14,13.2-28,7.7-31c-5.5-4-17.7-20-26.5-37
		c-16.6-30-80.6-95-94.9-95c-3.3,0-4.4,6-1.1,14s-3.3,22-15.4,32c-19.9,17-22.1,16-48.6-6c-17.7-15-33.1-20-46.3-16
		c-17.7,7-17.7,9,7.7,26l27.6,20h-29.8c-16.6,0-33.1-4-36.4-10c-6.6-10-100.4-50-117-50c-5.5,0-6.6,7-3.3,15c4.4,8,2.2,15-4.4,15
		s-13.2-5-15.4-11c-2.2-7-16.6-2-34.2,13c-32,27-28.7,38,9.9,38c36.4,0,59.6,10,59.6,26c0,8-11,14-27.6,14c-15.4,0-32,8-38.6,20
		c-14.3,23-49.7,27-59.6,5c-3.3-9-19.9-15-40.8-15c-26.5,0-33.1-4-27.6-15c3.3-9-1.1-18-9.9-22c-14.3-5-14.3-10,5.5-40
		c27.6-42,27.6-40-6.6-47c-18.8-5-38.6-1-55.2,9c-45.2,27-152.3,15-131.3-15c5.5-8,26.5-11,62.9-8c29.8,3,56.3,2,58.5-2
		c6.6-10-68.4-40-100.4-40c-17.7,0-30.9-8-39.7-25c-6.6-14-18.8-25-27.6-25c-7.7,0-24.3-9-36.4-20c-24.3-22-56.3-26-89.4-10
		c-33.1,17-25.4,33,12.1,25c45.2-9,41.9,0-7.7,24c-23.2,11-35.3,20-27.6,21c18.8,0,16.6,25-4.4,41c-11,8-38.6,19-64,24
		c-33.1,7-46.3,16-48.6,32c-2.2,13-14.3,24-30.9,27c-16.6,4-26.5,14-26.5,25s-12.1,28-27.6,39c-30.9,22-25.4,32,18.8,32
		c16.6,0,30.9,5,30.9,10c0,6-41.9,10-101.5,10c-107,0-145.7,10-122.5,31c9.9,9,1.1,17-36.4,35c-27.6,13-58.5,24-68.4,23
		c-11,0-6.6-5,12.1-11c37.5-12,39.7-31,2.2-22c-17.7,4-37.5,0-55.2-10c-14.3-9-36.4-16-48.6-16c-33.1,0-40.8,22-14.3,38
		c13.2,8,24.3,18,24.3,23c0,18-81.7,58-105.9,53c-24.3-6-24.3-5-9.9,33c13.2,34,19.9,39,61.8,45c25.4,4,51.9,12,57.4,17
		c16.6,15-67.3,42-109.2,35c-50.8-8-145.7,15-154.5,38c-8.8,26-25.4,22-33.1-7c-5.5-18-14.3-25-36.4-26c-15.4,0-38.6-4-50.8-8
		c-12.1-5-30.9-4-40.8,1c-12.1,5-27.6,5-41.9-2c-35.3-17-25.4-30,21-30c24.3,0,47.4-5,51.9-12c13.2-19-30.9-40-76.1-35
		c-28.7,4-48.6,0-64-12c-27.6-20-17.7-31,54.1-51c44.1-13,48.6-12,64,8c21,27,49.7,28,76.1,3c11-12,36.4-21,64-23
		c49.7-3,66.2-25,39.7-54c-11-13-17.7-11-43,11c-32,28-60.7,31-200.8,21c-54.1-3-83.9-11-109.2-28l-34.2-23l32-3
		c25.4-2,37.5-11,50.8-37c16.6-32,16.6-35-1.1-44c-37.5-18-168.8-43-195.3-37c-15.4,4-47.4,3-72.8,0c-39.7-6-43-8-27.6-22
		c11-10,38.6-16,77.2-16c33.1-1,62.9-4,67.3-8c9.9-9-28.7-48-48.6-48c-12.1,0-13.2-3-4.4-11c9.9-9,7.7-16-9.9-29
		c-21-15-22.1-20-11-50c7.7-18,13.2-37,13.2-41c0-16-77.2-10-83.9,6c-9.9,22-36.4,18-47.4-7c-6.6-16-4.4-26,7.7-34s13.2-15,3.3-31
		c-8.8-17-8.8-22,4.4-27c18.8-6,22.1-42,5.5-51c-6.6-3-8.8-16-5.5-28c4.4-17-3.3-27-34.2-44c-47.4-28-61.8-29-57.4-5
		c1.1,10-5.5,29-15.4,43c-12.1,17-14.3,31-7.7,40c15.4,22,12.1,29-12.1,29c-14.3,0-22.1,7-22.1,20c0,19-44.1,63-115.9,118
		c-35.3,26-40.8,27-82.8,7c-32-15-33.1-15-33.1,10c0,40,32,77,58.5,69c17.7-5,21-3,15.4,11c-4.4,9-7.7,19-7.7,21s-9.9,4-22.1,4
		c-33.1,0-40.8,28-12.1,46c28.7,19,30.9,37,2.2,29c-16.6-5-19.9-2-15.4,14c3.3,13-1.1,21-16.6,25c-35.3,10-79.4,46-79.4,64
		c0,8,11,26,24.3,39c32,31,16.6,43-60.7,46c-33.1,1-65.1,5-68.4,9c-4.4,4-34.2,18-67.3,33c-45.2,20-69.5,40-99.3,80
		c-44.1,60-43,91,2.2,101c37.5,9,34.2,34-4.4,34c-21,0-41.9,10-60.7,30c-18.8,18-40.8,30-57.4,30c-15.4,0-27.6,2-27.6,5
		c0,9,56.3,55,68.4,55c6.6,0,3.3,9-7.7,20c-12.1,12-34.2,20-55.2,20c-53,0-101.5,18-121.4,47c-15.4,21-25.4,24-58.5,20
		c-23.2-2-56.3-10-76.1-18c-37.5-14-59.6-6-38.6,13c19.9,18,16.6,25-14.3,32c-28.7,7-35.3,20-16.6,31c18.8,11,12.1,23-17.7,29
		c-40.8,10-67.3-1-75-30c-7.7-25-9.9-25-98.2-24h-120.3c-17.7,0-38.6-1-47.4-1h-35.3c-18.8,0-70.6,7-121.4,17
		c-22.1,4-23.2,7-12.1,30c11,21,9.9,27-3.3,35c-43,25-125.8-2-164.4-54c-29.8-39-37.5-41-134.6-38c-58.5,3-135.7-6-284.7-30
		c-134.6-22-182.1-33-189.8-43c-4.4-6-25.4-9-47.4-7c-24.3,1-47.4-3-58.5-12c-26.5-21-59.6-28-78.3-17c-22.1,12-57.4-6-49.7-25
		c5.5-11-1.1-15-21-15c-15.4,0-30.9,4-34.2,9c-4.4,5-32-2-61.8-15s-67.3-24-82.8-24c-32,0-111.4,29-169.9,62
		c-27.6,15-78.3-7-78.3-34c0-19-81.7-57-167.7-79c-24.3-6-56.3-21-69.5-33c-26.5-24-100.4-41-110.3-25c-4.4,5-12.1,9-17.7,9
		c-6.6,0-8.8-4-5.5-9s-13.2-21-37.5-36c-34.2-21-53-26-88.3-23c-24.3,2-44.1,0-44.1-4c0-5,4.4-8,8.8-8c5.5,0,17.7-6,28.7-13
		c15.4-10,1.1-13-85-13c-57.4-1-117-4-132.4-8c-17.7-4-29.8-2-29.8,4c0,17-27.6,11-47.4-11c-17.7-18-27.6-20-82.8-14
		c-36.4,4-83.9,2-112.6-5c-27.6-6-60.7-14-73.9-17c-14.3-3-34.2-2-44.1,2c-11,4-51.9,8-91.6,10c-55.2,1-82.8-3-121.4-20
		c-27.6-12-92.7-28-143.4-34c-99.3-13-195.3-38-205.2-52c-3.3-5-19.9-9-38.6-9c-21,0-44.1-11-67.3-30c-18.8-16-40.8-30-49.7-30
		s-27.6-11-41.9-24c-14.3-14-36.4-27-48.6-31c-13.2-4-18.8-12-15.4-24c3.3-11-5.5-28-22.1-42c-32-28-46.3-64-29.8-74
		c14.3-8,14.3-62,0-70c-5.5-3-11-15-11-26c0-18-4.4-20-34.2-14c-26.5,5-33.1,4-29.8-6c2.2-7,16.6-16,32-20l26.5-6l-29.8-11
		c-35.3-13-38.6-24-14.3-42s19.9-46-7.7-64c-13.2-9-21-16-15.4-16c5.5,0,1.1-9-8.8-19c-18.8-18-18.8-20,2.2-30
		c30.9-15,38.6-72,11-79c-23.2-5-26.5-18-6.6-24s-21-25-62.9-29c-29.8-4-33.1-1-29.8,21c3.3,20,1.1,23-9.9,13
		c-7.7-7-28.7-13-45.2-13c-38.6,0-40.8-17-2.2-26c18.8-4,25.4-11,21-21c-3.3-11-1.1-13,11-9c11,4,16.6-1,16.6-14
		c0-25-15.4-25-54.1,0c-25.4,18-35.3,19-60.7,10c-19.9-7-36.4-7-44.1-1c-7.7,6-22.1,3-39.7-9c-16.6-12-45.2-20-72.8-20
		c-24.3,0-48.6-3-53-7s-24.3-6-44.1-5c-21,2-56.3-4-79.4-14c-24.3-9-67.3-20-97.1-23c-65.1-7-87.2-30-58.5-59
		c33.1-33,24.3-52-26.5-52c-34.2,0-46.3,4-50.8,18c-3.3,14-16.6,18-65.1,18c-40.8,1-59.6-3-59.6-11c0-7-23.2-20-51.9-29
		c-49.7-15-54.1-15-67.3,1c-12.1,15-11,18,5.5,21c69.5,10,72.8,12,54.1,31c-9.9,10-17.7,23-17.7,30c0,8-7.7,10-22.1,6
		c-12.1-3-30.9-2-40.8,4c-17.7,9-15.4,11,15.4,23c33.1,13,32,14-47.4,15c-66.2,1-93.8,6-145.7,29c-34.2,16-66.2,33-69.5,37
		c-7.7,9-87.2-1-87.2-12c0-3,7.7-15,16.6-25c15.4-18,13.2-21-24.3-32c-44.1-14-59.6-11-38.6,8c15.4,14,17.7,28,3.3,28
		c-5.5,0-15.4-13-23.2-30c-15.4-35-44.1-39-64-10c-12.1,18-9.9,22,14.3,32c14.3,6,29.8,18,33.1,27c13.2,34,37.5,54,53,43
		c17.7-13,46.3,1,35.3,18c-4.4,6-17.7,9-28.7,7c-13.2-3-21,0-19.9,6c4.4,21-22.1,67-37.5,67c-23.2,0-30.9-12-17.7-26
		c16.6-19-40.8-31-69.5-15c-11,6-25.4,9-32,6c-5.5-4-30.9,14-57.4,39c-25.4,25-56.3,46-67.3,46s-22.1,9-25.4,20
		c-3.3,11-9.9,20-15.4,20c-33.1,0,29.8-74,99.3-116c30.9-19,64-48,72.8-64c9.9-17,24.3-30,34.2-30c9.9,0,15.4-7,13.2-17
		c-5.5-25-81.7-40-105.9-20c-17.7,14-64,24-140.1,31c-17.7,1-51.9-6-73.9-17c-36.4-18-46.3-19-85-8c-38.6,10-46.3,17-56.3,52
		c-9.9,33-16.6,40-33.1,36c-27.6-6-53,19-35.3,35c23.2,21,14.3,34-23.2,34c-19.9,0-58.5,10-85,22s-50.8,20-53,17
		c-2.2-2,9.9-22,28.7-43c18.8-22,39.7-51,45.2-65c6.6-14,23.2-31,37.5-39c66.2-33,118.1-69,118.1-83c0-8-3.3-14-7.7-14
		c-5.5,1-19.9,1-33.1,0c-34.2-1-32-21,1.1-21c15.4,0,30.9-4,34.2-10s-5.5-10-21-10c-32,0-47.4-15-22.1-24c34.2-12,70.6-7,64,9
		c-4.4,10,0,15,12.1,15c26.5,0,60.7-19,60.7-34c0-8,9.9-16,22.1-19c27.6-6,18.8-34-15.4-48c-12.1-5-30.9-14-40.8-20
		c-24.3-16-77.2-3-83.9,22c-4.4,15-8.8,17-21,8c-16.6-12-32-5-32,14c0,15-78.3,28-119.2,21c-24.3-5-28.7-9-18.8-19
		c15.4-16-6.6-33-24.3-17c-13.2,12-83.9-18-152.3-65c-39.7-28-50.8-31-53-19c-5.5,21-21,20-34.2-3c-6.6-10-26.5-21-45.2-25
		c-58.5-10-187.6-123-187.6-164c-0.3-4,17.4-16,38.3-25c33.1-15,37.5-20,28.7-36c-23-38.8-35.7-144.1-8.5-184.4"/>
	<path d="M5857.4,7047.5c7.7-3,17.7-2,21,1c4.4,3-2.2,6-14.3,5C5851.9,7053.5,5848.5,7050.5,5857.4,7047.5z"/>
	<path d="M11685.7,7019.5c0-6,6.6-20,15.4-30c13.2-17,18.8-18,57.4-6c33.1,9,50.8,10,75,1c43-14,62.9,3,21,19
		C11804.9,7021.5,11685.7,7033.5,11685.7,7019.5z"/>
	<path d="M10177.3,6982.5c-29.8-13-32-30-7.7-48c14.3-11,21-10,39.7,7c13.2,13,19.9,28,16.6,37
		C10218.1,6996.5,10211.5,6997.5,10177.3,6982.5z"/>
	<path d="M8144.8,6938.5l-26.5-17l26.5-13c47.4-24,142.3-16,142.3,11c0,18-7.7,22-66.2,30
		C8183.4,6953.5,8164.6,6951.5,8144.8,6938.5z"/>
	<path d="M10588.9,6945.5c-4.4-7-5.5-15-2.2-18c9.9-9,21,4,15.4,18C10597.7,6956.5,10595.5,6956.5,10588.9,6945.5z"/>
	<path d="M10721.3,6901.5c-55.2-29-59.6-40-21-65c25.4-16,45.2-19,107-16c41.9,1,80.6,7,87.2,13c8.8,8,6.6,11-6.6,11
		c-21,0-25.4,16-6.6,22c7.7,2,2.2,15-14.3,31C10831.6,6931.5,10782,6932.5,10721.3,6901.5z"/>
	<path d="M7376.8,6864.5c-3.3-5-1.1-10,4.4-10c6.6,0,12.1,5,12.1,10c0,6-2.2,10-4.4,10C7385.6,6874.5,7380.1,6870.5,7376.8,6864.5z"
		/>
	<path d="M12057.5,6858.5c-12.1-12,3.3-24,32-24c26.5,0,35.3-14,15.4-25c-5.5-3-11-10-11-16c0-14,30.9-11,35.3,3
		c4.4,10,11,10,34.2,1c16.6-7,32-8,35.3-3c6.6,10-44.1,44-77.2,52c-12.1,3-29.8,9-39.7,12C12073,6862.5,12062,6862.5,12057.5,6858.5
		z"/>
	<path d="M7172.7,6804.5c0-5,5.5-10,11-10c6.6,0,11,5,11,10c0,6-4.4,10-11,10C7178.2,6814.5,7172.7,6810.5,7172.7,6804.5z"/>
	<path d="M8844.4,6784.5c3.3-5,21-10,39.7-10c17.7,0,32,5,32,10c0,6-17.7,10-39.7,10C8853.2,6794.5,8839.9,6790.5,8844.4,6784.5z"/>
	<path d="M7787.3,6778.5c-14.3-13,5.5-24,45.2-24c24.3,0,35.3,4,29.8,9C7846.9,6776.5,7797.2,6786.5,7787.3,6778.5z"/>
	<path d="M8972.4,6775.5c-11-6-11-10-1.1-16c14.3-8,26.5-1,21,14C8988.9,6779.5,8981.2,6780.5,8972.4,6775.5z"/>
	<path d="M12270.5,6744.5c0-5,8.8-10,19.9-10c11,0,32-11,46.3-25c25.4-25,55.2-33,55.2-16c0,5-15.4,21-34.2,35
		C12324.6,6754.5,12270.5,6763.5,12270.5,6744.5z"/>
	<path d="M7898.7,6737.5c7.7-3,17.7-2,21,1c4.4,3-2.2,6-14.3,5C7893.2,6743.5,7889.9,6740.5,7898.7,6737.5z"/>
	<path d="M8232,6684.5c0-30,14.3-37,40.8-22c11,6,9.9,13-3.3,30C8246.3,6722.5,8232,6719.5,8232,6684.5z"/>
	<path d="M12332.3,6686.5c-19.9-28,53-88,114.8-94c19.9-3,25.4,2,27.6,30c2.2,26-1.1,32-18.8,32c-18.8,0-19.9,3-8.8,15
		c23.2,26-18.8,32-45.2,6c-28.7-27-51.9-27-56.3,2C12343.3,6693.5,12340,6696.5,12332.3,6686.5z"/>
	<path d="M10654,6674.5c30.9-12,51.9-12,44.1,0c-3.3,6-19.9,10-36.4,9C10635.2,6683.5,10634.1,6682.5,10654,6674.5z"/>
	<path d="M7782.9,6644.5c-38.6-14-29.8-20,30.9-20c39.7,0,54.1,4,51.9,13C7859,6652.5,7814.9,6656.5,7782.9,6644.5z"/>
	<path d="M8629.2,6619.5c0-17,2.2-18,26.5-9c25.4,9,22.1,24-4.4,24C8639.1,6634.5,8629.2,6627.5,8629.2,6619.5z"/>
	<path d="M7941.8,6611.5c-3.3-9,1.1-21,9.9-27c12.1-10,15.4-10,15.4,1c0,8-4.4,20-9.9,27C7949.5,6623.5,7947.3,6623.5,7941.8,6611.5
		z"/>
	<path d="M9550.6,6604.5c3.3-5,17.7-10,30.9-9c23.2,0,23.2,1,2.2,9C9552.8,6616.5,9542.8,6616.5,9550.6,6604.5z"/>
	<path d="M8044.4,6594.5c0-5,5.5-10,11-10c6.6,0,11,5,11,10c0,6-4.4,10-11,10C8049.9,6604.5,8044.4,6600.5,8044.4,6594.5z"/>
	<path d="M8819,6555.5c2.2-7,7.7-12,12.1-12c13.2,1,9.9,15-3.3,20C8820.1,6565.5,8815.7,6561.5,8819,6555.5z"/>
	<path d="M9986.4,6554.5c0-5,9.9-10,21-10c12.1,0,25.4,5,28.7,10c4.4,6-5.5,10-21,10C9999.6,6564.5,9986.4,6560.5,9986.4,6554.5z"/>
	<path d="M9434.7,6528.5c-15.4-7-36.4-14-46.3-14c-11,0-19.9-4-19.9-9s35.3-11,77.2-13c43-2,77.2-2,77.2,0c0,1-7.7,14-17.7,27
		C9485.5,6547.5,9474.4,6548.5,9434.7,6528.5z"/>
	<path d="M9217.3,6519.5c5.5-14,55.2-23,71.7-12c24.3,17,14.3,24-30.9,23C9233.9,6530.5,9215.1,6525.5,9217.3,6519.5z"/>
	<path d="M8748.4,6509.5c-3.3-3-3.3-16,0-30c4.4-25,72.8-70,91.6-60c15.4,9,12.1,25-6.6,25c-9.9,0-19.9,8-24.3,18
		C8795.8,6497.5,8762.7,6522.5,8748.4,6509.5z"/>
	<path d="M12364.3,6504.5c-3.3-5-1.1-10,4.4-10c6.6,0,12.1,5,12.1,10c0,6-2.2,10-4.4,10
		C12373.1,6514.5,12367.6,6510.5,12364.3,6504.5z"/>
	<path d="M7917.5,6404.5c-3.3-5,1.1-10,9.9-10c9.9,0,17.7,5,17.7,10c0,6-4.4,10-9.9,10C7928.5,6414.5,7920.8,6410.5,7917.5,6404.5z"
		/>
	<path d="M2551.5,6360.5c1.1-10,8.8-17,14.3-17c16.6,1,13.2,24-3.3,29C2552.6,6375.5,2548.2,6370.5,2551.5,6360.5z"/>
	<path d="M9046.3,6367.5c7.7-3,17.7-2,21,1c4.4,3-2.2,6-14.3,5C9040.8,6373.5,9037.5,6370.5,9046.3,6367.5z"/>
	<path d="M9456.8,6330.5c0-7,9.9-21,23.2-32c16.6-14,24.3-15,30.9-6c4.4,7,16.6,10,26.5,6c22.1-7,24.3,5,4.4,26
		C9525.2,6343.5,9456.8,6347.5,9456.8,6330.5z"/>
	<path d="M9275.8,6315.5c-7.7-11,45.2-24,61.8-15c8.8,5,5.5,10-8.8,15C9299,6326.5,9282.4,6326.5,9275.8,6315.5z"/>
	<path d="M10008.5,6319.5c0-2,16.6-12,36.4-21l35.3-17l-29.8-9c-17.7-6-30.9-13-30.9-18c0-11,49.7-21,69.5-14
		c35.3,12,28.7,34-18.8,59C10023.9,6324.5,10008.5,6329.5,10008.5,6319.5z"/>
	<path d="M12660,6287.5c-23.2-3-36.4-10-36.4-19c0-12,4.4-13,23.2-3c13.2,6,35.3,9,50.8,6c15.4-2,24.3,0,22.1,6
		C12715.2,6290.5,12705.3,6292.5,12660,6287.5z"/>
	<path d="M7843.5,6237.5c6.6-2,19.9-2,27.6,0c6.6,3,1.1,5-14.3,5C7841.3,6242.5,7835.8,6240.5,7843.5,6237.5z"/>
	<path d="M7967.1,6064.5c0-5,5.5-10,12.1-10c5.5,0,7.7,5,4.4,10c-3.3,6-8.8,10-12.1,10C7969.3,6074.5,7967.1,6070.5,7967.1,6064.5z"
		/>
	<path d="M9377.3,6067.5c6.6-2,19.9-2,27.6,0c6.6,3,1.1,5-14.3,5S9369.6,6070.5,9377.3,6067.5z"/>
	<path d="M876.5,5963.5c-3.3-6-1.1-16,5.5-22c9.9-9,15.4-8,23.2,3c9.9,15,4.4,30-11,30C888.6,5974.5,880.9,5969.5,876.5,5963.5z"/>
	<path d="M618.3,5913.5c0-5,5.5-7,11-4c6.6,3,11,8,11,11c0,2-4.4,4-11,4C623.8,5924.5,618.3,5919.5,618.3,5913.5z"/>
	<path d="M524.5,5904.5c-9.9-15,15.4-40,39.7-40c27.6,0,26.5,26,0,40C537.7,5917.5,533.3,5917.5,524.5,5904.5z"/>
	<path d="M12519.9,5905.5c-11-15,13.2-51,32-51c8.8,0,16.6-5,16.6-11s15.4,3,33.1,19c37.5,34,44.1,59,14.3,47
		c-24.3-10-47.4-10-70.6-1C12534.2,5912.5,12523.2,5911.5,12519.9,5905.5z"/>
	<path d="M770.6,5864.5c-21-47-8.8-53,23.2-11c26.5,33,29.8,51,9.9,51C795.9,5904.5,780.5,5886.5,770.6,5864.5z"/>
	<path d="M392.1,5885.5c-7.7-12,34.2-25,49.7-16c6.6,4,8.8,11,5.5,16C438.4,5897.5,400.9,5897.5,392.1,5885.5z"/>
	<path d="M1650,5854.5c3.3-5,12.1-10,17.7-10c6.6,0,7.7,5,4.4,10c-3.3,6-12.1,10-17.7,10C1647.8,5864.5,1646.7,5860.5,1650,5854.5z"
		/>
	<path d="M1605.9,5834.5c-3.3-5-1.1-10,4.4-10c6.6,0,12.1,5,12.1,10c0,6-2.2,10-4.4,10C1614.7,5844.5,1609.2,5840.5,1605.9,5834.5z"
		/>
	<path d="M1271.5,5752.5c6.6-18,30.9-21,30.9-4c0,9-7.7,16-17.7,16S1269.3,5759.5,1271.5,5752.5z"/>
	<path d="M695.5,5725.5c-14.3-26-14.3-31,5.5-31c9.9,0,16.6,9,16.6,25C717.6,5749.5,711,5751.5,695.5,5725.5z"/>
	<path d="M2118.9,5704.5c0-14,41.9-32,49.7-21c3.3,6-3.3,15-15.4,20C2126.7,5717.5,2118.9,5717.5,2118.9,5704.5z"/>
	<path d="M2234.8,5703.5c-11-15,1.1-23,22.1-15c9.9,3,14.3,10,11,16C2259.1,5717.5,2243.6,5717.5,2234.8,5703.5z"/>
	<path d="M1412.8,5664.5c0-13,12.1-13,33.1,0c13.2,8,12.1,10-7.7,10C1423.8,5674.5,1412.8,5670.5,1412.8,5664.5z"/>
	<path d="M12684.3,5654.5c-3.3-5-1.1-10,4.4-10c6.6,0,12.1,5,12.1,10c0,6-2.2,10-4.4,10
		C12693.1,5664.5,12687.6,5660.5,12684.3,5654.5z"/>
	<path d="M1965.6,5632.5c-6.6-18-9.9-19-15.4-5c-4.4,10-13.2,17-19.9,17c-8.8,0-9.9-4,0-13c6.6-8,8.8-17,5.5-20s-3.3-10,1.1-16
		c4.4-7,16.6-5,36.4,6c16.6,9,30.9,18,33.1,19c1.1,0,0,9-4.4,18C1992.1,5660.5,1976.6,5658.5,1965.6,5632.5z"/>
	<path d="M1870.7,5584.5c-19.9-8-18.8-9,7.7-9c16.6-1,33.1,4,36.4,9C1922.5,5596.5,1901.6,5596.5,1870.7,5584.5z"/>
	<path d="M293.9,5548.5c-12.1-27-7.7-37,9.9-24c17.7,14,22.1,40,6.6,40C304.9,5564.5,297.2,5557.5,293.9,5548.5z"/>
	<path d="M430.7,5514.5c0-5,7.7-10,17.7-10c8.8,0,13.2,5,9.9,10c-3.3,6-11,10-17.7,10C435.1,5524.5,430.7,5520.5,430.7,5514.5z"/>
	<path d="M12452.6,5474.5c4.4-6,12.1-8,17.7-5c15.4,9,12.1,15-7.7,15C12453.7,5484.5,12449.3,5479.5,12452.6,5474.5z"/>
	<path d="M12678.8,5171.5c-25.4-11-23.2-12,32-15c62.9-3,82.8,3,56.3,18C12745,5187.5,12713,5185.5,12678.8,5171.5z"/>
</g>
</svg>