<svg class="shape-divider-hexas" preserveAspectRatio="xMidYMin slice" xmlns="http://www.w3.org/2000/svg" viewBox="0 0 2000 82"><g><path style="isolation:isolate" opacity=".75" d="M157 35V15L140 5l-18 10v20l18 10 17-10z"></path><path d="M189 23V11l-10-7-11 7v12l11 6 10-6zM99 33V14L82 4 66 14v19l16 9 17-9zM433 36V16L416 6l-17 10v20l17 10 17-10zM466 29V17l-11-7-11 7v12l11 6 11-6z"></path><path style="isolation:isolate" opacity=".5" d="M375 31V12L359 2l-17 10v19l17 9 16-9z"></path><path d="M680 33V17l13-7 14 7v16l-14 8-13-8z"></path><path style="isolation:isolate" opacity=".5" d="M626 29V17l11-7 11 7v12l-11 6-11-6z"></path><path style="isolation:isolate" opacity=".75" d="M546 20V9l9-5 10 5v11l-10 6-9-6z"></path><path d="M720 28V13l13-7 12 7v15l-12 7-13-7z"></path><path style="isolation:isolate" opacity=".5" d="M783 16V7l8-4 8 4v9l-8 5-8-5z"></path><path style="isolation:isolate" opacity=".75" d="M998 31V14l-14-8-14 8v17l14 8 14-8zM867 23V8l-13-8-13 8v15l13 8 13-8z"></path><path d="M1060 18V8l-8-5-8 5v10l8 4 8-4z"></path><path style="isolation:isolate" opacity=".5" d="M950 28V13l-13-7-13 7v15l13 8 13-8zM1287 30V11l-16-9-16 9v19l16 9 16-9z"></path><path d="M1335 25V12l-11-6-11 6v13l11 6 11-6z"></path><path style="isolation:isolate" opacity=".75" d="M1231 30V13l-15-9-15 9v17l15 9 15-9z"></path><path style="isolation:isolate" opacity=".5" d="M1179 26V13l-11-7-12 7v13l12 7 11-7z"></path><path style="isolation:isolate" opacity=".75" d="M1536 27V13l12-7 13 7v14l-13 8-12-8z"></path><path style="isolation:isolate" opacity=".5" d="M1493 32V19l11-6 11 6v13l-11 6-11-6z"></path><path d="M1400 17V6l10-6 9 6v11l-9 5-10-5zM1434 32V15l14-8 14 8v17l-14 8-14-8z"></path><path style="isolation:isolate" opacity=".5" d="M1579 20V8l10-6 10 6v12l-10 5-10-5z"></path><path d="M1817 22V9l-12-7-11 7v13l11 7 12-7z"></path><path style="isolation:isolate" opacity=".5" d="M1867 23v-9l-8-4-8 4v9l8 4 8-4z"></path><path d="M1992 38V17l-18-11-18 11v21l18 10 18-10z"></path><path style="isolation:isolate" opacity=".5" d="M1931 33V22l-9-6-10 6v11l10 5 9-5z"></path><path style="isolation:isolate" opacity=".75" d="M1781 38V20l-16-10-16 10v18l16 10 16-10z"></path><path d="M1709 27V13l-13-7-12 7v14l12 8 13-8z"></path><path d="M1989 68l-9-17-10 16-30-33-18 32-30-51-21 38-11-19-10 17-19-33-22 39-15-26-26 34-8-13-7 13-22-40-19 33-9-14-12 21-36-50-22 40-24-41-22 37-15-27-24 31-16-20-21 26-7-13-8 14-20-30-19 31-10-17-11 20-29-34-18 32-29-50-22 37-11-19-9 18-19-33-30 43-22-29-12 31-7-13-8 13-27-33-14 25-9-14-12 21-36-47-22 39-26-44-21 37-16-27-24 37-10-25-24 30-9-17-10 16-20-20-18 21-10-17-11 20-28-36-19 32-29-51-22 37-10-18-10 17-19-33-29 51-15-26-19 21-8-14-7 13-22-26-20 26-8-15-12 21-36-54-33 51-34-54-22 38-16-28-25 44-11-20-21 27-10-17-9 16-21-39-18 34-9-16-12 19-28-39-18 32-30-51-21 37-11-18-10 17-19-33-29 51-15-25-19 26-7-10-8 9-22-31-19 26-9-8-12 14L34 6 0 66v16h2000V34l-11 34z"></path></g></svg>