<svg class="shape-divider-hexagons" preserveAspectRatio="xMidYMin slice" xmlns="http://www.w3.org/2000/svg" viewBox="0 0 2000.4 80.8"><g><path d="M1729 81h-76l10-11 26-26a2 2 0 013 0l23 23z"></path><path d="M1778 81h-77l14-14 23-23a2 2 0 013 0z"></path><path d="M1830 81h-76l12-12 25-25a2 2 0 013 0z"></path><path d="M1881 81h-76l13-13 23-24a2 2 0 013 0z"></path><path d="M1931 81h-76l13-13 24-24a2 2 0 012 0z"></path><path d="M1981 81h-76l13-13 24-24a2 2 0 012 0l24 24z"></path><path d="M2000 50v31h-44l12-13 24-24a2 2 0 013 0zM1467 81h-76l10-11 27-26a2 2 0 012 0l23 23z"></path><path d="M1516 81h-77l14-14 23-23a2 2 0 013 0l25 25z"></path><path d="M1568 81h-75l36-37a2 2 0 013 0l25 25z"></path><path d="M1621 81h-75l11-12 25-25a2 2 0 013 0l25 26z"></path><path d="M1674 81h-75l11-11 25-25a2 2 0 013 0l25 25zM1205 81h-76l10-11 27-26a2 2 0 012 0l23 23z"></path><path d="M1254 81h-76l13-14 23-23a2 2 0 013 0l25 25z"></path><path d="M1307 81h-76l11-12 25-25a2 2 0 013 0z"></path><path d="M1359 81h-75l11-12 25-25a2 2 0 013 0z"></path><path d="M1412 81h-75l11-11 25-25a2 2 0 013 0l25 25zM943 81h-76l10-11 27-26a2 2 0 012 0l23 23z"></path><path d="M992 81h-76l13-14 23-23a2 2 0 013 0l25 25z"></path><path d="M1045 81h-76l11-12 25-25a2 2 0 013 0l25 25z"></path><path d="M1097 81h-75l11-12 25-25a2 2 0 013 0l25 26z"></path><path d="M1150 81h-75l36-36a2 2 0 013 0zM681 81h-76l11-11 26-26a2 2 0 012 0l24 23z"></path><path d="M730 81h-76l14-14 23-23a2 2 0 012 0l25 25z"></path><path d="M783 81h-76l11-12 25-25a2 2 0 013 0l25 25z"></path><path d="M835 81h-75l36-37a2 2 0 013 0l25 26z"></path><path d="M888 81h-75l11-11 25-25a2 2 0 013 0zM419 81h-76l11-11 26-26a2 2 0 013 0l23 23z"></path><path d="M468 81h-76l14-14 23-23a2 2 0 012 0l26 25z"></path><path d="M521 81h-76l12-12 25-25a2 2 0 012 0l25 25z"></path><path d="M574 81h-76l11-12 25-25a2 2 0 013 0z"></path><path d="M626 81h-75l11-11 25-25a2 2 0 013 0l26 25zM158 81H81l11-11 26-26a2 2 0 013 0l23 23z"></path><path d="M206 81h-76l14-14 23-23a2 2 0 012 0l26 25z"></path><path d="M259 81h-76l12-12 25-25a2 2 0 012 0l26 25z"></path><path d="M312 81h-76l37-37a2 2 0 012 0l26 26z"></path><path d="M364 81h-75l37-36a2 2 0 012 0zM49 81H0V55l11-10a2 2 0 012 0l25 25z"></path><path d="M102 81H28l11-11 25-25a2 2 0 012 0z"></path><rect width="7.8" height="7.8" x="92.1" y="20.1" rx="1.2" transform="rotate(-45 87 20)"></rect><path d="M91 17l4 4a1 1 0 002 0l4-4a1 1 0 000-1l-4-4a1 1 0 00-2 0l-4 4a1 1 0 000 1zm4-5a1 1 0 012 0l3 4a1 1 0 010 1l-3 4a1 1 0 01-2 0l-4-4a1 1 0 010-1z"></path><rect width="14.4" height="14.4" x="141.2" y="39" rx="1.2" transform="rotate(-45 139 42)"></rect><path d="M139 40l8 8a1 1 0 002 0l9-8a1 1 0 000-2l-9-9a1 1 0 00-2 0l-8 9a1 1 0 000 2zm9-10a1 1 0 011 0l9 8a1 1 0 010 1l-9 9a1 1 0 01-1 0l-9-8a1 1 0 010-2z"></path><rect width="15.1" height="15.1" x="148.9" y="19.9" rx="1.2" transform="rotate(-45 147 24)"></rect><path d="M147 21l9 9a1 1 0 001 0l9-9a1 1 0 000-2l-9-9a1 1 0 00-1 0l-9 9a1 1 0 000 2zm9-11a1 1 0 011 0l9 9a1 1 0 010 2l-9 9a1 1 0 01-1 0l-9-9a1 1 0 010-2z"></path><rect width="12.7" height="12.7" x="84.5" y="35" rx=".8" transform="rotate(-45 82 38)"></rect><rect width="4.3" height="4.3" x="121.8" y="7.9" rx="1.2" transform="rotate(-45 115 6)"></rect><path d="M126 2l-1-2a1 1 0 00-2 0l-1 2a1 1 0 000 1l1 2a1 1 0 002 0l1-2a1 1 0 000-1zm-1 3a1 1 0 01-2 0l-1-2a1 1 0 010-1l1-1a1 1 0 012 0l1 1a1 1 0 010 1z"></path><rect width="20.3" height="20.3" x="57.1" y="12.7" rx="1.2" transform="rotate(-45 58 19)"></rect><path d="M54 16l12 13a1 1 0 002 0l13-13a1 1 0 000-2L68 2a1 1 0 00-2 0L54 15a1 1 0 000 1zM66 2a1 1 0 012 0l13 13a1 1 0 010 1L68 29a1 1 0 01-2 0L54 16a1 1 0 010-1z"></path><rect width="4.5" height="4.5" x="114.7" y="56.2" rx="1.2" transform="rotate(-45 108 55)"></rect><rect width="24.6" height="24.6" x="111.7" y="20" rx="1.2" transform="rotate(-45 115 29)"></rect><path d="M107 26l16 15a1 1 0 002 0l15-15a1 1 0 000-2L125 8a1 1 0 00-2 0l-16 16a1 1 0 000 2zm16-18a1 1 0 012 0l15 16a1 1 0 010 2l-15 15a1 1 0 01-2 0l-15-15a1 1 0 010-2z"></path><rect width="5" height="5" x="57.3" y="36.8" rx="1.4"></rect><path d="M57 38v2a1 1 0 002 2h2a1 1 0 001-2v-2a1 1 0 00-1-1h-2a1 1 0 00-2 1zm1 0a1 1 0 011-1h2a1 1 0 011 1v2a1 1 0 01-1 2h-2a1 1 0 01-1-2z"></path><rect width="22.3" height="22.3" x="16" y="24.6" rx="1.4" transform="rotate(-45 18 32)"></rect><rect width="7.8" height="7.8" x="249.9" y="20.1" rx="1.2" transform="rotate(-45 245 20)"></rect><path d="M249 17l4 4a1 1 0 002 0l3-4a1 1 0 000-1l-3-4a1 1 0 00-2 0l-4 4a1 1 0 000 1zm4-5a1 1 0 012 0l3 4a1 1 0 010 1l-3 4a1 1 0 01-2 0l-4-4a1 1 0 010-1z"></path><rect width="14.4" height="14.4" x="299" y="39" rx="1.2" transform="rotate(-45 297 42)"></rect><path d="M297 40l8 8a1 1 0 002 0l9-8a1 1 0 000-2l-9-9a1 1 0 00-2 0l-8 9a1 1 0 000 2zm8-10a1 1 0 012 0l8 8a1 1 0 010 1l-8 9a1 1 0 01-2 0l-8-8a1 1 0 010-2z"></path><rect width="15.1" height="15.1" x="306.7" y="19.9" rx="1.2" transform="rotate(-45 305 24)"></rect><path d="M304 21l9 9a1 1 0 002 0l9-9a1 1 0 000-2l-9-9a1 1 0 00-2 0l-9 9a1 1 0 000 2zm9-11a1 1 0 012 0l9 9a1 1 0 010 2l-9 9a1 1 0 01-2 0l-8-9a1 1 0 010-2z"></path><rect width="12.7" height="12.7" x="242.3" y="35" rx=".8" transform="rotate(-45 240 38)"></rect><rect width="4.3" height="4.3" x="279.6" y="7.9" rx="1.2" transform="rotate(-45 273 6)"></rect><path d="M284 2l-1-2a1 1 0 00-2 0l-1 2a1 1 0 000 1l1 2a1 1 0 002 0l1-2a1 1 0 000-1zm-1 3a1 1 0 01-2 0l-1-2a1 1 0 010-1l1-1a1 1 0 012 0l1 1a1 1 0 010 1z"></path><rect width="20.3" height="20.3" x="214.9" y="12.7" rx="1.2" transform="rotate(-45 216 19)"></rect><path d="M212 16l12 13a1 1 0 002 0l13-13a1 1 0 000-2L226 2a1 1 0 00-2 0l-12 13a1 1 0 000 1zm12-14a1 1 0 012 0l12 13a1 1 0 010 1l-12 13a1 1 0 01-2 0l-12-13a1 1 0 010-1z"></path><rect width="4.5" height="4.5" x="272.6" y="56.2" rx="1.2" transform="rotate(-45 266 55)"></rect><rect width="24.6" height="24.6" x="269.5" y="20" rx="1.2" transform="rotate(-45 273 29)"></rect><path d="M265 26l16 15a1 1 0 002 0l15-15a1 1 0 000-2L283 8a1 1 0 00-2 0l-16 16a1 1 0 000 2zm16-18a1 1 0 012 0l15 16a1 1 0 010 2l-15 15a1 1 0 01-2 0l-16-15a1 1 0 010-2z"></path><rect width="5" height="5" x="215.2" y="36.8" rx="1.4"></rect><path d="M215 38v2a1 1 0 002 2h2a1 1 0 001-2v-2a1 1 0 00-1-1h-2a1 1 0 00-2 1zm0 0a1 1 0 012-1h2a1 1 0 011 1v2a1 1 0 01-1 2h-2a1 1 0 01-2-2z"></path><rect width="22.3" height="22.3" x="173.8" y="24.6" rx="1.4" transform="rotate(-45 176 32)"></rect><rect width="7.8" height="7.8" x="407.7" y="20.1" rx="1.2" transform="rotate(-45 403 20)"></rect><path d="M407 17l4 4a1 1 0 002 0l3-4a1 1 0 000-1l-3-4a1 1 0 00-2 0l-4 4a1 1 0 000 1zm4-5a1 1 0 011 0l4 4a1 1 0 010 1l-4 4a1 1 0 01-1 0l-4-4a1 1 0 010-1z"></path><rect width="14.4" height="14.4" x="456.8" y="39" rx="1.2" transform="rotate(-45 455 42)"></rect><path d="M455 40l8 8a1 1 0 002 0l8-8a1 1 0 000-2l-8-9a1 1 0 00-2 0l-8 9a1 1 0 000 2zm8-10a1 1 0 012 0l8 8a1 1 0 010 1l-8 9a1 1 0 01-2 0l-8-8a1 1 0 010-2z"></path><rect width="15.1" height="15.1" x="464.5" y="19.9" rx="1.2" transform="rotate(-45 463 24)"></rect><path d="M462 21l9 9a1 1 0 002 0l9-9a1 1 0 000-2l-9-9a1 1 0 00-2 0l-9 9a1 1 0 000 2zm9-11a1 1 0 012 0l9 9a1 1 0 010 2l-9 9a1 1 0 01-2 0l-9-9a1 1 0 010-2z"></path><rect width="12.7" height="12.7" x="400.2" y="35" rx=".8" transform="rotate(-45 397 38)"></rect><rect width="4.3" height="4.3" x="437.4" y="7.9" rx="1.2" transform="rotate(-45 431 6)"></rect><path d="M442 2l-2-2a1 1 0 00-1 0l-2 2a1 1 0 000 1l2 2a1 1 0 001 0l2-2a1 1 0 000-1zm-2 3a1 1 0 01-1 0l-1-2a1 1 0 010-1l1-1a1 1 0 011 0l2 1a1 1 0 010 1z"></path><rect width="20.3" height="20.3" x="372.8" y="12.7" rx="1.2" transform="rotate(-45 374 19)"></rect><path d="M369 16l13 13a1 1 0 002 0l12-13a1 1 0 000-2L384 2a1 1 0 00-2 0l-13 13a1 1 0 000 1zm13-14a1 1 0 012 0l12 13a1 1 0 010 1l-12 13a1 1 0 01-2 0l-12-13a1 1 0 010-1z"></path><rect width="4.5" height="4.5" x="430.4" y="56.2" rx="1.2" transform="rotate(-45 424 55)"></rect><rect width="24.6" height="24.6" x="427.3" y="20" rx="1.2" transform="rotate(-45 431 29)"></rect><path d="M423 26l16 15a1 1 0 002 0l15-15a1 1 0 000-2L441 8a1 1 0 00-2 0l-16 16a1 1 0 000 2zm16-18a1 1 0 011 0l16 16a1 1 0 010 2l-16 15a1 1 0 01-1 0l-16-15a1 1 0 010-2z"></path><rect width="5" height="5" x="373" y="36.8" rx="1.4"></rect><path d="M373 38v2a1 1 0 001 2h3a1 1 0 001-2v-2a1 1 0 00-1-1h-3a1 1 0 00-1 1zm0 0a1 1 0 011-1h3a1 1 0 011 1v2a1 1 0 01-1 2h-3a1 1 0 01-1-2z"></path><rect width="22.3" height="22.3" x="331.6" y="24.6" rx="1.4" transform="rotate(-45 334 32)"></rect><rect width="7.8" height="7.8" x="565.6" y="20.1" rx="1.2" transform="rotate(-45 560 20)"></rect><path d="M565 17l4 4a1 1 0 001 0l4-4a1 1 0 000-1l-4-4a1 1 0 00-1 0l-4 4a1 1 0 000 1zm4-5a1 1 0 011 0l4 4a1 1 0 010 1l-4 4a1 1 0 01-1 0l-4-4a1 1 0 010-1z"></path><rect width="14.4" height="14.4" x="614.7" y="39" rx="1.2" transform="rotate(-45 613 42)"></rect><path d="M613 40l8 8a1 1 0 002 0l8-8a1 1 0 000-2l-8-9a1 1 0 00-2 0l-8 9a1 1 0 000 2zm8-10a1 1 0 012 0l8 8a1 1 0 010 1l-8 9a1 1 0 01-2 0l-8-8a1 1 0 010-2z"></path><rect width="15.1" height="15.1" x="622.4" y="19.9" rx="1.2" transform="rotate(-45 621 24)"></rect><path d="M620 21l9 9a1 1 0 002 0l9-9a1 1 0 000-2l-9-9a1 1 0 00-2 0l-9 9a1 1 0 000 2zm9-11a1 1 0 012 0l9 9a1 1 0 010 2l-9 9a1 1 0 01-2 0l-9-9a1 1 0 010-2z"></path><rect width="12.7" height="12.7" x="558" y="35" rx=".8" transform="rotate(-45 555 38)"></rect><rect width="4.3" height="4.3" x="595.3" y="7.9" rx="1.2" transform="rotate(-45 588 6)"></rect><path d="M600 2l-2-2a1 1 0 00-1 0l-2 2a1 1 0 000 1l2 2a1 1 0 001 0l2-2a1 1 0 000-1zm-2 3a1 1 0 01-1 0l-2-2a1 1 0 010-1l2-1a1 1 0 011 0l2 1a1 1 0 010 1z"></path><rect width="20.3" height="20.3" x="530.6" y="12.7" rx="1.2" transform="rotate(-45 532 19)"></rect><path d="M527 16l13 13a1 1 0 002 0l12-13a1 1 0 000-2L542 2a1 1 0 00-2 0l-13 13a1 1 0 000 1zm13-14a1 1 0 012 0l12 13a1 1 0 010 1l-12 13a1 1 0 01-2 0l-13-13a1 1 0 010-1z"></path><rect width="4.5" height="4.5" x="588.2" y="56.2" rx="1.2" transform="rotate(-45 581 55)"></rect><rect width="24.6" height="24.6" x="585.2" y="20" rx="1.2" transform="rotate(-45 588 29)"></rect><path d="M581 26l16 15a1 1 0 001 0l16-15a1 1 0 000-2L598 8a1 1 0 00-1 0l-16 16a1 1 0 000 2zm16-18a1 1 0 011 0l16 16a1 1 0 010 2l-16 15a1 1 0 01-1 0l-16-15a1 1 0 010-2z"></path><rect width="5" height="5" x="530.9" y="36.8" rx="1.4"></rect><path d="M531 38v2a1 1 0 001 2h2a1 1 0 002-2v-2a1 1 0 00-2-1h-2a1 1 0 00-1 1zm0 0a1 1 0 011-1h2a1 1 0 012 1v2a1 1 0 01-2 2h-2a1 1 0 01-1-2z"></path><rect width="22.3" height="22.3" x="489.5" y="24.6" rx="1.4" transform="rotate(-45 492 32)"></rect><rect width="7.8" height="7.8" x="723.4" y="20.1" rx="1.2" transform="rotate(-45 718 20)"></rect><path d="M723 17l3 4a1 1 0 002 0l4-4a1 1 0 000-1l-4-4a1 1 0 00-2 0l-3 4a1 1 0 000 1zm4-5a1 1 0 011 0l4 4a1 1 0 010 1l-4 4a1 1 0 01-1 0l-4-4a1 1 0 010-1z"></path><rect width="14.4" height="14.4" x="772.5" y="39" rx="1.2" transform="rotate(-45 771 42)"></rect><path d="M770 40l9 8a1 1 0 002 0l8-8a1 1 0 000-2l-8-9a1 1 0 00-2 0l-9 9a1 1 0 000 2zm9-10a1 1 0 012 0l8 8a1 1 0 010 1l-8 9a1 1 0 01-2 0l-9-8a1 1 0 010-2z"></path><rect width="15.1" height="15.1" x="780.2" y="19.9" rx="1.2" transform="rotate(-45 779 24)"></rect><path d="M778 21l9 9a1 1 0 002 0l9-9a1 1 0 000-2l-9-9a1 1 0 00-2 0l-9 9a1 1 0 000 2zm9-11a1 1 0 012 0l9 9a1 1 0 010 2l-9 9a1 1 0 01-2 0l-9-9a1 1 0 010-2z"></path><rect width="12.7" height="12.7" x="715.8" y="35" rx=".8" transform="rotate(-45 713 38)"></rect><rect width="4.3" height="4.3" x="753.1" y="7.9" rx="1.2" transform="rotate(-45 746 6)"></rect><path d="M757 2l-1-2a1 1 0 00-2 0l-1 2a1 1 0 000 1l1 2a1 1 0 002 0l1-2a1 1 0 000-1zm-1 3a1 1 0 01-1 0l-2-2a1 1 0 010-1l2-1a1 1 0 011 0l1 1a1 1 0 010 1z"></path><rect width="20.3" height="20.3" x="688.5" y="12.7" rx="1.2" transform="rotate(-45 690 19)"></rect><path d="M685 16l13 13a1 1 0 001 0l13-13a1 1 0 000-2L699 2a1 1 0 00-1 0l-13 13a1 1 0 000 1zm13-14a1 1 0 011 0l13 13a1 1 0 010 1l-13 13a1 1 0 01-1 0l-13-13a1 1 0 010-1z"></path><rect width="4.5" height="4.5" x="746.1" y="56.2" rx="1.2" transform="rotate(-45 739 55)"></rect><rect width="24.6" height="24.6" x="743" y="20" rx="1.2" transform="rotate(-45 746 29)"></rect><path d="M739 26l15 15a1 1 0 002 0l16-15a1 1 0 000-2L756 8a1 1 0 00-2 0l-15 16a1 1 0 000 2zm16-18a1 1 0 011 0l16 16a1 1 0 010 2l-16 15a1 1 0 01-1 0l-16-15a1 1 0 010-2z"></path><rect width="5" height="5" x="688.7" y="36.8" rx="1.4"></rect><path d="M689 38v2a1 1 0 001 2h2a1 1 0 002-2v-2a1 1 0 00-2-1h-2a1 1 0 00-1 1zm0 0a1 1 0 011-1h2a1 1 0 012 1v2a1 1 0 01-2 2h-2a1 1 0 01-1-2z"></path><rect width="22.3" height="22.3" x="647.3" y="24.6" rx="1.4" transform="rotate(-45 649 32)"></rect><rect width="7.8" height="7.8" x="881.3" y="20.1" rx="1.2" transform="rotate(-45 876 20)"></rect><path d="M881 17l3 4a1 1 0 002 0l4-4a1 1 0 000-1l-4-4a1 1 0 00-2 0l-4 4a1 1 0 001 1zm3-5a1 1 0 012 0l4 4a1 1 0 010 1l-4 4a1 1 0 01-2 0l-3-4a1 1 0 010-1z"></path><rect width="14.4" height="14.4" x="930.3" y="39" rx="1.2" transform="rotate(-45 928 42)"></rect><path d="M928 40l9 8a1 1 0 001 0l9-8a1 1 0 000-2l-9-9a1 1 0 00-1 0l-9 9a1 1 0 000 2zm9-10a1 1 0 011 0l9 8a1 1 0 010 1l-9 9a1 1 0 01-1 0l-9-8a1 1 0 010-2z"></path><rect width="15.1" height="15.1" x="938" y="19.9" rx="1.2" transform="rotate(-45 937 24)"></rect><path d="M936 21l9 9a1 1 0 002 0l9-9a1 1 0 000-2l-9-9a1 1 0 00-2 0l-9 9a1 1 0 000 2zm9-11a1 1 0 011 0l9 9a1 1 0 010 2l-9 9a1 1 0 01-1 0l-9-9a1 1 0 010-2z"></path><rect width="12.7" height="12.7" x="873.7" y="35" rx=".8" transform="rotate(-45 871 38)"></rect><rect width="4.3" height="4.3" x="911" y="7.9" rx="1.2" transform="rotate(-45 904 6)"></rect><path d="M915 2l-1-2a1 1 0 00-2 0l-1 2a1 1 0 000 1l1 2a1 1 0 002 0l1-2a1 1 0 000-1zm-1 3a1 1 0 01-2 0l-1-2a1 1 0 010-1l1-1a1 1 0 012 0l1 1a1 1 0 010 1z"></path><rect width="20.3" height="20.3" x="846.3" y="12.7" rx="1.2" transform="rotate(-45 847 19)"></rect><path d="M843 16l13 13a1 1 0 001 0l13-13a1 1 0 000-2L857 2a1 1 0 00-1 0l-13 13a1 1 0 000 1zm13-14a1 1 0 011 0l13 13a1 1 0 010 1l-13 13a1 1 0 01-1 0l-13-13a1 1 0 010-1z"></path><rect width="4.5" height="4.5" x="903.9" y="56.2" rx="1.2" transform="rotate(-45 897 55)"></rect><rect width="24.6" height="24.6" x="900.9" y="20" rx="1.2" transform="rotate(-45 904 29)"></rect><path d="M897 26l15 15a1 1 0 002 0l16-15a1 1 0 000-2L914 8a1 1 0 00-2 0l-15 16a1 1 0 000 2zm15-18a1 1 0 012 0l16 16a1 1 0 010 2l-16 15a1 1 0 01-2 0l-15-15a1 1 0 010-2z"></path><rect width="5" height="5" x="846.5" y="36.8" rx="1.4"></rect><path d="M847 38v2a1 1 0 001 2h2a1 1 0 002-2v-2a1 1 0 00-2-1h-2a1 1 0 00-1 1zm0 0a1 1 0 011-1h2a1 1 0 011 1v2a1 1 0 01-1 2h-2a1 1 0 01-1-2z"></path><rect width="22.3" height="22.3" x="805.2" y="24.6" rx="1.4" transform="rotate(-45 807 32)"></rect><rect width="7.8" height="7.8" x="1039.1" y="20.1" rx="1.2" transform="rotate(-45 1034 20)"></rect><path d="M1038 17l4 4a1 1 0 002 0l4-4a1 1 0 000-1l-4-4a1 1 0 00-2 0l-4 4a1 1 0 000 1zm4-5a1 1 0 012 0l4 4a1 1 0 010 1l-4 4a1 1 0 01-2 0l-4-4a1 1 0 010-1z"></path><rect width="14.4" height="14.4" x="1088.2" y="39" rx="1.2" transform="rotate(-45 1086 42)"></rect><path d="M1086 40l9 8a1 1 0 001 0l9-8a1 1 0 000-2l-9-9a1 1 0 00-1 0l-9 9a1 1 0 000 2zm9-10a1 1 0 011 0l9 8a1 1 0 010 1l-9 9a1 1 0 01-1 0l-9-8a1 1 0 010-2z"></path><rect width="15.1" height="15.1" x="1095.9" y="19.9" rx="1.2" transform="rotate(-45 1094 24)"></rect><path d="M1094 21l9 9a1 1 0 001 0l9-9a1 1 0 000-2l-9-9a1 1 0 00-1 0l-9 9a1 1 0 000 2zm9-11a1 1 0 011 0l9 9a1 1 0 010 2l-9 9a1 1 0 01-1 0l-9-9a1 1 0 010-2z"></path><rect width="12.7" height="12.7" x="1031.5" y="35" rx=".8" transform="rotate(-45 1029 38)"></rect><rect width="4.3" height="4.3" x="1068.8" y="7.9" rx="1.2" transform="rotate(-45 1062 6)"></rect><path d="M1073 2l-1-2a1 1 0 00-2 0l-1 2a1 1 0 000 1l1 2a1 1 0 002 0l1-2a1 1 0 000-1zm-1 3a1 1 0 01-2 0l-1-2a1 1 0 010-1l1-1a1 1 0 012 0l1 1a1 1 0 010 1z"></path><rect width="20.3" height="20.3" x="1004.1" y="12.7" rx="1.2" transform="rotate(-45 1005 19)"></rect><path d="M1001 16l12 13a1 1 0 002 0l13-13a1 1 0 000-2l-13-12a1 1 0 00-2 0l-12 13a1 1 0 000 1zm13-14a1 1 0 011 0l13 13a1 1 0 010 1l-13 13a1 1 0 01-1 0l-13-13a1 1 0 010-1z"></path><rect width="4.5" height="4.5" x="1061.8" y="56.2" rx="1.2" transform="rotate(-45 1055 55)"></rect><rect width="24.6" height="24.6" x="1058.7" y="20" rx="1.2" transform="rotate(-45 1062 29)"></rect><path d="M1054 26l16 15a1 1 0 002 0l16-15a1 1 0 000-2l-16-16a1 1 0 00-2 0l-16 16a1 1 0 000 2zm16-18a1 1 0 012 0l15 16a1 1 0 010 2l-15 15a1 1 0 01-2 0l-15-15a1 1 0 010-2z"></path><rect width="5" height="5" x="1004.4" y="36.8" rx="1.4"></rect><path d="M1004 38v2a1 1 0 002 2h2a1 1 0 001-2v-2a1 1 0 00-1-1h-2a1 1 0 00-2 1zm1 0a1 1 0 011-1h2a1 1 0 011 1v2a1 1 0 01-1 2h-2a1 1 0 01-1-2z"></path><rect width="22.3" height="22.3" x="963" y="24.6" rx="1.4" transform="rotate(-45 965 32)"></rect><rect width="7.8" height="7.8" x="1196.9" y="20.1" rx="1.2" transform="rotate(-45 1192 20)"></rect><path d="M1196 17l4 4a1 1 0 002 0l3-4a1 1 0 000-1l-3-4a1 1 0 00-2 0l-4 4a1 1 0 000 1zm4-5a1 1 0 012 0l3 4a1 1 0 010 1l-3 4a1 1 0 01-2 0l-4-4a1 1 0 010-1z"></path><rect width="14.4" height="14.4" x="1246" y="39" rx="1.2" transform="rotate(-45 1244 42)"></rect><path d="M1244 40l8 8a1 1 0 002 0l9-8a1 1 0 000-2l-9-9a1 1 0 00-2 0l-8 9a1 1 0 000 2zm8-10a1 1 0 012 0l8 8a1 1 0 010 1l-8 9a1 1 0 01-2 0l-8-8a1 1 0 010-2z"></path><rect width="15.1" height="15.1" x="1253.7" y="19.9" rx="1.2" transform="rotate(-45 1252 24)"></rect><path d="M1251 21l9 9a1 1 0 002 0l9-9a1 1 0 000-2l-9-9a1 1 0 00-2 0l-9 9a1 1 0 000 2zm10-11a1 1 0 011 0l9 9a1 1 0 010 2l-9 9a1 1 0 01-1 0l-9-9a1 1 0 010-2z"></path><rect width="12.7" height="12.7" x="1189.4" y="35" rx=".8" transform="rotate(-45 1187 38)"></rect><rect width="4.3" height="4.3" x="1226.6" y="7.9" rx="1.2" transform="rotate(-45 1220 6)"></rect><path d="M1231 2l-1-2a1 1 0 00-2 0l-1 2a1 1 0 000 1l1 2a1 1 0 002 0l1-2a1 1 0 000-1zm-1 3a1 1 0 01-2 0l-1-2a1 1 0 010-1l1-1a1 1 0 012 0l1 1a1 1 0 010 1z"></path><rect width="20.3" height="20.3" x="1162" y="12.7" rx="1.2" transform="rotate(-45 1163 19)"></rect><path d="M1159 16l12 13a1 1 0 002 0l13-13a1 1 0 000-2l-13-12a1 1 0 00-2 0l-12 13a1 1 0 000 1zm12-14a1 1 0 012 0l12 13a1 1 0 010 1l-12 13a1 1 0 01-2 0l-12-13a1 1 0 010-1z"></path><rect width="4.5" height="4.5" x="1219.6" y="56.2" rx="1.2" transform="rotate(-45 1213 55)"></rect><rect width="24.6" height="24.6" x="1216.5" y="20" rx="1.2" transform="rotate(-45 1220 29)"></rect><path d="M1212 26l16 15a1 1 0 002 0l15-15a1 1 0 000-2l-15-16a1 1 0 00-2 0l-16 16a1 1 0 000 2zm16-18a1 1 0 012 0l15 16a1 1 0 010 2l-15 15a1 1 0 01-2 0l-16-15a1 1 0 010-2z"></path><rect width="5" height="5" x="1162.2" y="36.8" rx="1.4"></rect><path d="M1162 38v2a1 1 0 002 2h2a1 1 0 001-2v-2a1 1 0 00-1-1h-2a1 1 0 00-2 1zm0 0a1 1 0 012-1h2a1 1 0 011 1v2a1 1 0 01-1 2h-2a1 1 0 01-2-2z"></path><rect width="22.3" height="22.3" x="1120.8" y="24.6" rx="1.4" transform="rotate(-45 1123 32)"></rect><rect width="7.8" height="7.8" x="1354.8" y="20.1" rx="1.2" transform="rotate(-45 1350 20)"></rect><path d="M1354 17l4 4a1 1 0 002 0l3-4a1 1 0 000-1l-3-4a1 1 0 00-2 0l-4 4a1 1 0 000 1zm4-5a1 1 0 011 0l4 4a1 1 0 010 1l-4 4a1 1 0 01-1 0l-4-4a1 1 0 010-1z"></path><rect width="14.4" height="14.4" x="1403.8" y="39" rx="1.2" transform="rotate(-45 1402 42)"></rect><path d="M1402 40l8 8a1 1 0 002 0l8-8a1 1 0 000-2l-8-9a1 1 0 00-2 0l-8 9a1 1 0 000 2zm8-10a1 1 0 012 0l8 8a1 1 0 010 1l-8 9a1 1 0 01-2 0l-8-8a1 1 0 010-2z"></path><rect width="15.1" height="15.1" x="1411.6" y="19.9" rx="1.2" transform="rotate(-45 1410 24)"></rect><path d="M1409 21l9 9a1 1 0 002 0l9-9a1 1 0 000-2l-9-9a1 1 0 00-2 0l-9 9a1 1 0 000 2zm9-11a1 1 0 012 0l9 9a1 1 0 010 2l-9 9a1 1 0 01-2 0l-9-9a1 1 0 010-2z"></path><rect width="12.7" height="12.7" x="1347.2" y="35" rx=".8" transform="rotate(-45 1345 38)"></rect><rect width="4.3" height="4.3" x="1384.5" y="7.9" rx="1.2" transform="rotate(-45 1378 6)"></rect><path d="M1389 2l-2-2a1 1 0 00-1 0l-2 2a1 1 0 000 1l2 2a1 1 0 001 0l2-2a1 1 0 000-1zm-2 3a1 1 0 01-1 0l-1-2a1 1 0 010-1l1-1a1 1 0 011 0l2 1a1 1 0 010 1z"></path><rect width="20.3" height="20.3" x="1319.8" y="12.7" rx="1.2" transform="rotate(-45 1321 19)"></rect><path d="M1316 16l13 13a1 1 0 002 0l12-13a1 1 0 000-2l-12-12a1 1 0 00-2 0l-13 13a1 1 0 000 1zm13-14a1 1 0 012 0l12 13a1 1 0 010 1l-12 13a1 1 0 01-2 0l-12-13a1 1 0 010-1z"></path><rect width="4.5" height="4.5" x="1377.4" y="56.2" rx="1.2" transform="rotate(-45 1371 55)"></rect><rect width="24.6" height="24.6" x="1374.4" y="20" rx="1.2" transform="rotate(-45 1378 29)"></rect><path d="M1370 26l16 15a1 1 0 002 0l15-15a1 1 0 000-2l-15-16a1 1 0 00-2 0l-16 16a1 1 0 000 2zm16-18a1 1 0 011 0l16 16a1 1 0 010 2l-16 15a1 1 0 01-1 0l-16-15a1 1 0 010-2z"></path><rect width="5" height="5" x="1320" y="36.8" rx="1.4"></rect><path d="M1320 38v2a1 1 0 001 2h3a1 1 0 001-2v-2a1 1 0 00-1-1h-3a1 1 0 00-1 1zm0 0a1 1 0 011-1h3a1 1 0 011 1v2a1 1 0 01-1 2h-3a1 1 0 01-1-2z"></path><rect width="22.3" height="22.3" x="1278.7" y="24.6" rx="1.4" transform="rotate(-45 1281 32)"></rect><rect width="7.8" height="7.8" x="1512.6" y="20.1" rx="1.2" transform="rotate(-45 1507 20)"></rect><path d="M1512 17l4 4a1 1 0 001 0l4-4a1 1 0 000-1l-4-4a1 1 0 00-1 0l-4 4a1 1 0 000 1zm4-5a1 1 0 011 0l4 4a1 1 0 010 1l-4 4a1 1 0 01-1 0l-4-4a1 1 0 010-1z"></path><rect width="14.4" height="14.4" x="1561.7" y="39" rx="1.2" transform="rotate(-45 1560 42)"></rect><path d="M1560 40l8 8a1 1 0 002 0l8-8a1 1 0 000-2l-8-9a1 1 0 00-2 0l-8 9a1 1 0 000 2zm8-10a1 1 0 012 0l8 8a1 1 0 010 1l-8 9a1 1 0 01-2 0l-8-8a1 1 0 010-2z"></path><rect width="15.1" height="15.1" x="1569.4" y="19.9" rx="1.2" transform="rotate(-45 1568 24)"></rect><path d="M1567 21l9 9a1 1 0 002 0l9-9a1 1 0 000-2l-9-9a1 1 0 00-2 0l-9 9a1 1 0 000 2zm9-11a1 1 0 012 0l9 9a1 1 0 010 2l-9 9a1 1 0 01-2 0l-9-9a1 1 0 010-2z"></path><rect width="12.7" height="12.7" x="1505" y="35" rx=".8" transform="rotate(-45 1502 38)"></rect><rect width="4.3" height="4.3" x="1542.3" y="7.9" rx="1.2" transform="rotate(-45 1535 6)"></rect><path d="M1547 2l-2-2a1 1 0 00-1 0l-2 2a1 1 0 000 1l2 2a1 1 0 001 0l2-2a1 1 0 000-1zm-2 3a1 1 0 01-1 0l-2-2a1 1 0 010-1l2-1a1 1 0 011 0l2 1a1 1 0 010 1z"></path><rect width="20.3" height="20.3" x="1477.7" y="12.7" rx="1.2" transform="rotate(-45 1479 19)"></rect><path d="M1474 16l13 13a1 1 0 002 0l12-13a1 1 0 000-2l-12-12a1 1 0 00-2 0l-13 13a1 1 0 000 1zm13-14a1 1 0 012 0l12 13a1 1 0 010 1l-12 13a1 1 0 01-2 0l-13-13a1 1 0 010-1z"></path><rect width="4.5" height="4.5" x="1535.3" y="56.2" rx="1.2" transform="rotate(-45 1528 55)"></rect><rect width="24.6" height="24.6" x="1532.2" y="20" rx="1.2" transform="rotate(-45 1535 29)"></rect><path d="M1528 26l16 15a1 1 0 001 0l16-15a1 1 0 000-2l-16-16a1 1 0 00-1 0l-16 16a1 1 0 000 2zm16-18a1 1 0 011 0l16 16a1 1 0 010 2l-16 15a1 1 0 01-1 0l-16-15a1 1 0 010-2z"></path><rect width="5" height="5" x="1477.9" y="36.8" rx="1.4"></rect><path d="M1478 38v2a1 1 0 001 2h3a1 1 0 001-2v-2a1 1 0 00-1-1h-3a1 1 0 00-1 1zm0 0a1 1 0 011-1h3a1 1 0 011 1v2a1 1 0 01-1 2h-3a1 1 0 01-1-2z"></path><rect width="22.3" height="22.3" x="1436.5" y="24.6" rx="1.4" transform="rotate(-45 1439 32)"></rect><rect width="7.8" height="7.8" x="1670.4" y="20.1" rx="1.2" transform="rotate(-45 1665 20)"></rect><path d="M1670 17l3 4a1 1 0 002 0l4-4a1 1 0 000-1l-4-4a1 1 0 00-2 0l-3 4a1 1 0 000 1zm4-5a1 1 0 011 0l4 4a1 1 0 010 1l-4 4a1 1 0 01-1 0l-4-4a1 1 0 010-1z"></path><rect width="14.4" height="14.4" x="1719.5" y="39" rx="1.2" transform="rotate(-45 1718 42)"></rect><path d="M1717 40l9 8a1 1 0 002 0l8-8a1 1 0 000-2l-8-9a1 1 0 00-2 0l-9 9a1 1 0 000 2zm9-10a1 1 0 012 0l8 8a1 1 0 010 1l-8 9a1 1 0 01-2 0l-8-8a1 1 0 010-2z"></path><rect width="15.1" height="15.1" x="1727.2" y="19.9" rx="1.2" transform="rotate(-45 1726 24)"></rect><path d="M1725 21l9 9a1 1 0 002 0l9-9a1 1 0 000-2l-9-9a1 1 0 00-2 0l-9 9a1 1 0 000 2zm9-11a1 1 0 012 0l9 9a1 1 0 010 2l-9 9a1 1 0 01-2 0l-9-9a1 1 0 010-2z"></path><rect width="12.7" height="12.7" x="1662.9" y="35" rx=".8" transform="rotate(-45 1660 38)"></rect><rect width="4.3" height="4.3" x="1700.1" y="7.9" rx="1.2" transform="rotate(-45 1693 6)"></rect><path d="M1705 2l-2-2a1 1 0 00-2 0l-1 2a1 1 0 000 1l1 2a1 1 0 002 0l2-2a1 1 0 000-1zm-2 3a1 1 0 01-1 0l-2-2a1 1 0 010-1l2-1a1 1 0 011 0l1 1a1 1 0 010 1z"></path><rect width="20.3" height="20.3" x="1635.5" y="12.7" rx="1.2" transform="rotate(-45 1637 19)"></rect><path d="M1632 16l13 13a1 1 0 001 0l13-13a1 1 0 000-2l-13-12a1 1 0 00-1 0l-13 13a1 1 0 000 1zm13-14a1 1 0 011 0l13 13a1 1 0 010 1l-13 13a1 1 0 01-1 0l-13-13a1 1 0 010-1z"></path><rect width="4.5" height="4.5" x="1693.1" y="56.2" rx="1.2" transform="rotate(-45 1686 55)"></rect><rect width="24.6" height="24.6" x="1690" y="20" rx="1.2" transform="rotate(-45 1693 29)"></rect><path d="M1686 26l15 15a1 1 0 002 0l16-15a1 1 0 000-2l-16-16a1 1 0 00-2 0l-15 16a1 1 0 000 2zm16-18a1 1 0 011 0l16 16a1 1 0 010 2l-16 15a1 1 0 01-1 0l-16-15a1 1 0 010-2z"></path><rect width="5" height="5" x="1635.7" y="36.8" rx="1.4"></rect><path d="M1636 38v2a1 1 0 001 2h2a1 1 0 002-2v-2a1 1 0 00-2-1h-2a1 1 0 00-1 1zm0 0a1 1 0 011-1h2a1 1 0 012 1v2a1 1 0 01-2 2h-2a1 1 0 01-1-2z"></path><rect width="22.3" height="22.3" x="1594.3" y="24.6" rx="1.4" transform="rotate(-45 1596 32)"></rect><rect width="7.8" height="7.8" x="1828.3" y="20.1" rx="1.2" transform="rotate(-45 1823 20)"></rect><path d="M1828 17l3 4a1 1 0 002 0l4-4a1 1 0 000-1l-4-4a1 1 0 00-2 0l-4 4a1 1 0 001 1zm3-5a1 1 0 012 0l4 4a1 1 0 010 1l-4 4a1 1 0 01-2 0l-3-4a1 1 0 010-1z"></path><rect width="14.4" height="14.4" x="1877.4" y="39" rx="1.2" transform="rotate(-45 1876 42)"></rect><path d="M1875 40l9 8a1 1 0 001 0l9-8a1 1 0 000-2l-9-9a1 1 0 00-1 0l-9 9a1 1 0 000 2zm9-10a1 1 0 011 0l9 8a1 1 0 010 1l-9 9a1 1 0 01-1 0l-9-8a1 1 0 010-2z"></path><rect width="15.1" height="15.1" x="1885.1" y="19.9" rx="1.2" transform="rotate(-45 1884 24)"></rect><path d="M1883 21l9 9a1 1 0 002 0l9-9a1 1 0 000-2l-9-9a1 1 0 00-2 0l-9 9a1 1 0 000 2zm9-11a1 1 0 011 0l9 9a1 1 0 010 2l-9 9a1 1 0 01-1 0l-9-9a1 1 0 010-2z"></path><rect width="12.7" height="12.7" x="1820.7" y="35" rx=".8" transform="rotate(-45 1818 38)"></rect><rect width="4.3" height="4.3" x="1858" y="7.9" rx="1.2" transform="rotate(-45 1851 6)"></rect><path d="M1862 2l-1-2a1 1 0 00-2 0l-1 2a1 1 0 000 1l1 2a1 1 0 002 0l1-2a1 1 0 000-1zm-1 3a1 1 0 01-2 0l-1-2a1 1 0 010-1l1-1a1 1 0 012 0l1 1a1 1 0 010 1z"></path><rect width="20.3" height="20.3" x="1793.3" y="12.7" rx="1.2" transform="rotate(-45 1794 19)"></rect><path d="M1790 16l13 13a1 1 0 001 0l13-13a1 1 0 000-2l-13-12a1 1 0 00-1 0l-13 13a1 1 0 000 1zm13-14a1 1 0 011 0l13 13a1 1 0 010 1l-13 13a1 1 0 01-1 0l-13-13a1 1 0 010-1z"></path><rect width="4.5" height="4.5" x="1850.9" y="56.2" rx="1.2" transform="rotate(-45 1844 55)"></rect><rect width="24.6" height="24.6" x="1847.9" y="20" rx="1.2" transform="rotate(-45 1851 29)"></rect><path d="M1844 26l15 15a1 1 0 002 0l16-15a1 1 0 000-2l-16-16a1 1 0 00-2 0l-15 16a1 1 0 000 2zm15-18a1 1 0 012 0l16 16a1 1 0 010 2l-16 15a1 1 0 01-2 0l-15-15a1 1 0 010-2z"></path><rect width="5" height="5" x="1793.6" y="36.8" rx="1.4"></rect><path d="M1794 38v2a1 1 0 001 2h2a1 1 0 002-2v-2a1 1 0 00-2-1h-2a1 1 0 00-1 1zm0 0a1 1 0 011-1h2a1 1 0 011 1v2a1 1 0 01-1 2h-2a1 1 0 01-1-2z"></path><rect width="22.3" height="22.3" x="1752.2" y="24.6" rx="1.4" transform="rotate(-45 1754 32)"></rect><rect width="7.8" height="7.8" x="1986.1" y="20.1" rx="1.2" transform="rotate(-45 1981 20)"></rect><path d="M1985 17l4 4a1 1 0 002 0l4-4a1 1 0 000-1l-4-4a1 1 0 00-2 0l-4 4a1 1 0 000 1zm4-5a1 1 0 012 0l4 4a1 1 0 010 1l-4 4a1 1 0 01-2 0l-4-4a1 1 0 010-1z"></path><rect width="12.7" height="12.7" x="1978.5" y="35" rx=".8" transform="rotate(-45 1976 38)"></rect><rect width="20.3" height="20.3" x="1951.2" y="12.7" rx="1.2" transform="rotate(-45 1952 19)"></rect><path d="M1948 16l12 13a1 1 0 002 0l13-13a1 1 0 000-2l-13-12a1 1 0 00-2 0l-12 13a1 1 0 000 1zm13-14a1 1 0 011 0l13 13a1 1 0 010 1l-13 13a1 1 0 01-1 0l-13-13a1 1 0 010-1z"></path><rect width="5" height="5" x="1951.4" y="36.8" rx="1.4"></rect><path d="M1951 38v2a1 1 0 002 2h2a1 1 0 001-2v-2a1 1 0 00-1-1h-2a1 1 0 00-2 1zm1 0a1 1 0 011-1h2a1 1 0 011 1v2a1 1 0 01-1 2h-2a1 1 0 01-1-2z"></path><rect width="22.3" height="22.3" x="1910" y="24.6" rx="1.4" transform="rotate(-45 1912 32)"></rect></g></svg>