<svg class="shape-divider-stoner" xmlns="http://www.w3.org/2000/svg" viewBox="0 0 35.3 3.4" preserveAspectRatio="none">
<path d="M35.3,3.4c0-1.1,0-0.5,0-1.5C34.8,1.8,34.6,2,34.2,2c-0.1,0.1-0.2,0.1-0.3,0c-0.3,0-0.6,0-0.9-0.2c-0.2,0-0.3-0.3-0.5-0.1
	c-0.2-0.3-0.5,0.1-0.7-0.2c-0.7-0.1-1.3-0.3-1.9-0.3c-0.2,0.3-0.4-0.1-0.6,0.2c-0.2,0.1-0.4,0.1-0.5,0.1c-0.3,0.2-0.5-0.1-0.7,0
	c-0.2-0.1-0.4-0.3-0.6,0.1c-0.4,0.1-0.8,0.1-1.1,0.4c-0.5,0.2-1.1,0.7-1.6,0.7c-0.2,0.1-0.4,0.3-0.6,0.1c-0.5,0-1,0.2-1.5,0
	c-0.1,0.1-0.3-0.1-0.5-0.1c-0.2-0.1-0.4,0-0.5-0.1c-0.1-0.2-0.2,0-0.3-0.1c-0.3-0.2-0.6-0.1-0.9-0.1c-0.3,0.2-0.5-0.3-0.8-0.1
	c-0.1,0.2-0.3,0-0.4,0c-0.1,0-0.2,0.1-0.3,0c-0.5,0-0.9-0.1-1.4-0.2c-0.2,0.2-0.3-0.1-0.5,0c-0.1,0.1-0.2-0.1-0.3,0
	c-0.1,0.1-0.2,0.2-0.3,0.1c-0.1,0-0.1-0.1-0.2,0c-0.1,0-0.2,0.1-0.3,0c-0.2-0.3-0.5-0.2-0.7-0.4c-0.1,0-0.2-0.2,0,0
	c-0.1,0.2-0.1,0-0.2,0c-0.2-0.1-0.3,0-0.5-0.2c-0.2,0-0.3-0.3-0.5-0.2c-0.2,0-0.4-0.1-0.6-0.1c-0.1-0.1-0.2-0.1-0.3,0
	c-0.1,0-0.2-0.1-0.3,0c-0.1-0.3-0.2-0.1-0.3-0.1c-0.1,0-0.2-0.1-0.3,0c0-0.2-0.1-0.1-0.2-0.1C12,1.4,11.6,0.9,11.4,1
	c-0.1,0.1-0.1,0.1-0.2,0c-0.1,0.1-0.1-0.1-0.2,0c-0.1-0.1-0.3,0.3-0.4,0.3c-0.1,0.1-0.1-0.1-0.2,0c0,0.1-0.1-0.2-0.2,0
	c-0.2,0-0.4,0.1-0.5,0c-0.1,0-0.3-0.2-0.4-0.2C9.1,0.9,9,1.1,8.8,1C8.7,0.9,8.6,1.1,8.5,1c-0.3,0.2-0.6-0.1-1,0.1S6.8,1,6.5,1
	C6.3,0.8,6.2,1,6,0.7C5.8,0.4,5.7,0.8,5.5,0.5c-0.1-0.1-0.2,0-0.3-0.1C5.1,0.2,5,0.3,4.9,0.3C4.6,0,4.4,0.5,4.2,0.2
	C4,0.1,3.9,0,3.7,0.1C3.4,0.3,3.1-0.2,2.9,0C2.5,0.2,2.1-0.2,1.7,0C1.5,0,1.3-0.1,1.1,0.1c-0.3,0.4-0.6,0-0.9,0.2
	C0.1,1.3,0,1.4,0,3.4"/>
</svg>