<svg class="shape-divider-torsion" xmlns="http://www.w3.org/2000/svg" viewBox="0 0 1920 316" preserveAspectRatio="none" width="100" height="100"><path  d="M0,66.4c0,0,144,147.8,350,147.8S720,2.7,995,2.7c285,0,381,150.6,645,150.6c148,0,280-103.1,280-103.1V316H0 V66.4z" opacity="0.3"></path><path d="M0,2.7c0,0,81,179.4,363,179.4S605,2.7,823,2.7s296,251.1,374,251.1c79,0,161-165,285-165 c151,0,140,145.9,236,145.9s202-145.9,202-145.9V316H0V2.7z" opacity="0.3" ></path><path d="M0,139c0,0,84,107.6,214,107.6s264-50.2,335-50.2c72,0,132,81.3,285,81.3c190,0,168-203.3,315-203.3 c132,0,197,167.4,359,172.2c101,4.8,140-193.7,263-193.7s149,21.5,149,21.5V316H0V139z" opacity="0.5" ></path><path d="M0,316V52.9c360,334.9,1560,334.9,1920,0V316H0z"/></svg>