<svg class="shape-divider-triangles" preserveAspectRatio="none" xmlns="http://www.w3.org/2000/svg" viewBox="0 -0.6 2003.4 89.5"><g><path d="M2001 42l-12-21-12-21-12 21-12 21-4 6-8 14-6 11-6-11-12-20-12-21-12-21-12 21-12 21-8 14-4 7-8 13-8-14-12-20-12-21-12-21-12 21-12 21-8 14-4 6-6 11-6-11-12-20-12-21-12-21-12 21-12 21-12 20-8 14-8-14-12-20-12-21-12-21-12 21-12 21-12 21-6 10-6-11-12-20-12-21-12-21-12 21-12 21-8 14-4 6-8 14-8-14-12-20-12-21-12-21-12 21-12 21-4 7-8 13-6 11-6-11-12-20-12-21-12-21-12 21-12 21-12 21-8 13-8-14-12-20-12-21-12-21-12 21-12 21-12 21-6 10-6-11-12-20-12-21-12-21-12 21-12 21-12 21-7 13-8-14-12-20-12-21-12-21-12 21-12 21-4 7-8 13-6 11-6-11-12-20-12-21-12-21-12 21-12 21-13 21-8 13-7-14-12-20-12-21-12-21-12 21-12 21h-1l-12 21-5 10-6-11-12-20-12-21-13-21-12 21-12 21-4 7-8 13-8 14-7-14-12-20-12-21-12-21-12 21-12 21-4 7-8 13-6 11-6-11-12-20-12-21-12-21-12 21-12 21h-1l-12 21-7 13-8-14-12-20-12-21-12-21-12 21-12 21-8 14-4 7-6 10-6-11-12-20-12-21-12-21-12 21-12 21-4 7-8 13-8 14-8-14-12-20-12-21-12-21-12 21-12 21-12 21-6 10-6-11-12-20-12-21-12-21-12 21-12 21-8 13-4 7-8 14-8-14-12-20-12-21-12-21-12 21-12 21-8 14-4 6-6 11-6-11-12-20-12-21-12-21-12 21-12 21-12 20-8 14-8-14-12-20-12-21L86 0 74 21 62 42 50 63l-6 10-6-11-12-20-12-21L2 42l12 20-4-7-5-8-3-5 12-21L2 0 0 3v80h2003V46zM6 76l1-2 2-3 2-3-5 8zm252-34l8-14-8 14-12 20zm947 0l8-14-8 14-12 20zm344 0l7-14-7 14-12 20z" opacity=".5"></path><path d="M1991 69l-12-20-12-21-12-20-12 20-12 21-12 20-6 10-6-10-12-20-12-21-12-20-12 20-12 21-10 16-2 4-8 13-7-13-13-20-12-21-12 21-12 20 12-20 12-21-12-20-12 20-12 21-9 16-3 4-6 10-6-10-12-20-12-21-12-20-12 20-12 21-2 4-10 16-8 13-7-13-12-20-12-21-12-20-12 20-12 21h-1l-12 20-6 10-6-10-12-20-12-21-12-20-12 20-12 21-12 20-7 13-8-13-12-20-12-21-12-20-12 20-12 21-3 4-9 16-6 10-6-10-12-20-12-21-13-20-12 20-12 21-12 20-7 13-8-13-12-20-12-21-12-20-12 20-12 21-12 20-6 10-6-10-12-20-12-21-12 21-12 20 12-20 12-21-12-20-12 20-12 21h-1l-12 20-7 13-8-13-12-20-12-21-12-20-12 20-12 21-3 4-9 16-6 10-6-10-12-20-12-21-12-20-12 20-12 21-12 20-8 13-8-13-12-20-12-21-12-20-12 20-12 21-10 16-2 4-6 10-6-10-12-20-12-21-12-20-12 20-12 21-3 4-9 16-8 13-8-13-12-20-12-21-12-20-12 20-12 21-2 4-10 16-6 10-6-10-12-20-12-21-12-20-12 20-12 21-10 16-2 4-8 13-8-13-12-20-12-21-12-20-12 20-12 21-9 16-3 4-6 10-6-10-12-20-12-21-12-20-12 20-12 21-3 4-9 16-8 13-8-13-12-20-12-21-12-20-12 20-12 21-12 20-6 10-6-10-12-20-12-21-12-20-12 20-12 21-9 16-3 4-8 13-7-13-12-20-13-21-12 21-12 20 12-20 12-21-12-20-12 20-12 21-9 16-3 4-6 10-6-10-12-20-12-21-12-20-12 20-12 21-12 20-8 13-7-13-12-20-12-21L65 8 53 28 41 49h-1L28 69l-6 10-6-10-1-3-3-4v-1l-2-3-4-7-2-2-1-3-3-5v48h2003l-12-20z" opacity=".75"></path><path d="M1999 10l-12 21-12 20v1l-12 20-6 11-6-11-12-21-12-20-12-21-12 21-12 20v1l-4 6-8 14-8 14-8-14-12-21-12-20-12-21-12 21-12 20v1l-4 6-8 14-6 11-6-11-12-21-12-20-12-21-12 21-12 20v1l-12 20-8 14-8-14-12-21-12-20-12-21-12 21-12 20v1l-12 20-6 11-6-11-12-21-12-20-12-21-12 21-12 20v1l-4 6-8 14-8 14-7-14-12-21-12-20-13-21-12 21-12 20v1l-4 6-8 14-6 11-6-11-12-21-12-20-12-21-12 21-12 20-8 14-4 7-8 14-7-14-12-21-12-20-12-21-12 21-12 20-8 14-5 7-6 11-6-11-12-21-12-20-12-21-12 21-12 20v1l-12 20-7 14-8-14-12-21-12-20-12-21-12 21-12 20v1l-12 20-6 11-6-11-12-21-12-20-12-21-13 21-12 20-8 14-4 7-7 14-8-14-12-21-12-20-12 20-12 21 12-21 12-20-12-21-12 21-12 20-8 14-4 7-6 11-6-11-12-21-12-20-12-21-12 21-12 20-1 1-12 20-7 14-8-14-12-21-12-20-12-21-12 21-12 20v1l-12 20-6 11-6-11-12-21-12-20-12 20-12 21 12-21 12-20-12-21-12 21-12 20-8 14-4 7-8 14-8-14-12-21-12-20-12-21-12 21-12 20v1l-12 20-6 11-6-11-12-21-12-20-12-21-12 21-12 20v1l-12 20-8 14-8-14-12-21-12-20-12-21-12 21-12 20v1l-12 20-6 11-6-11-12-21-12-20-12-21-12 21-12 20v1l-4 7-8 13-8 14-8-14-12-21-12-20-12-21-12 21-12 20v1l-4 7-8 13-6 11-6-11-12-21-12-20-12-21-12 21-12 20v1l-12 20-8 14-8-14-12-21-12-20-12-21-12 21-12 20-8 14-4 7-6 11-6-11-12-21-12-20-12-21-12 21L0 51l9 16-5-8-2-5-2-3v38h2l1-1-1 1h2001V17l-4-7z" opacity=".7"></path><path d="M1995 49l-12 20-6 10-6-10-12-20-12-21-12-20-12 20-12 21-12 20-8 13-8-13-12-20-12-21-12-20-12 20-12 21-12 20-6 10-6-10-12-20-12-21-12 21-12 20 12-20 12-21-12-20-12 20-12 21-12 20-8 13-8-13-12-21-12-20-12-20-12 20-12 20v1l-2 4-10 16-6 10-6-10-12-20-12-21-12-20-12 20-12 21-12 20-8 13-8-13-12-21-12-20-12-20-12 20-12 20-9 17-3 4-6 10-6-10-12-20-12-21-12-20-12 20-12 21-2 4-10 16-8 13-8-13-12-21-12-20-12-20-12 20-12 20v1l-2 4-10 16-6 10-6-10-12-21-12-20-12-20-12 20-12 20-9 17-3 4-8 13-8-13-12-21-12-20-12-20-12 20-12 20-9 17-3 4-6 10-6-10-12-20-12-21-12-20-12 20-12 21-2 4-10 16-8 13-7-13-12-21-12-20-12-20-12 20-12 20v1l-13 20-6 10-6-10-12-20-12-21-12-20-12 20-12 21-9 16-3 4-8 13-7-13-12-20-12-21-12 21-12 20 12-20 12-21-12-20-12 20-12 21-13 20-5 10-6-10-12-20-12-21-12-20-12 20-12 21h-1l-2 4-10 16-7 13-8-13-12-20-12-21-12-20-12 20-12 21-12 20-6 10-6-10-12-20-12-21-12-20-12 20-12 21-13 20-7 13-8-13-12-20-12-21-12-20-12 20-12 21-12 20-6 10-6-10-12-20-12-21-12-20-12 20-12 21-12 20-8 13-8-13-12-20-12-21-12-20-12 20-12 21-12 20-6 10-6-10-12-20-12-21-12 21-12 20 12-20 12-21-12-20-12 20-12 21-3 4-9 16-8 13-8-13-12-20-12-21-12-20-12 20-12 21-2 4-10 16-6 10-6-10-12-20-12-21L44 8 32 28 20 49 8 69l-1 2H6l-4 7-2 4v7h20l-1-1 1 1h1975v-1h8V34l-8 15zM9 71l-1-1 1 2zm1983 14l-9-16z"></path></g></svg>