<svg class="shape-divider-waves" xmlns="http://www.w3.org/2000/svg" viewBox="00 0 280 28" preserveAspectRatio="none"><path d="M-1.7,28.5H288v-2.6c-3.3-1.3-4.1-5-8.8-5c-5.7,0-5.7,5.5-11.4,5.5c-5.7,0-5.7-5.5-11.4-5.5c-5.7,0-5.7,5.5-11.4,5.5c-5.7,0-5.7-5.5-11.4-5.5c-5.7,0-5.7,5.5-11.4,5.5c-5.7,0-5.7-5.5-11.4-5.5c-5.7,0-5.7,5.5-11.4,5.5c-5.7,0-5.7-5.5-11.4-5.5c-5.7,0-5.7,5.5-11.4,5.5c-5.7,0-5.7-5.5-11.4-5.5c-5.7,0-5.7,5.5-11.4,5.5c-5.7,0-5.7-5.5-11.4-5.5c-5.7,0-5.7,5.5-11.4,5.5c-5.7,0-5.7-5.5-11.4-5.5c-5.7,0-5.7,5.5-11.4,5.5c-5.7,0-5.7-5.5-11.4-5.5c-5.7,0-5.7,5.5-11.4,5.5c-5.7,0-5.7-5.5-11.4-5.5c-5.7,0-5.7,5.5-11.4,5.5c-5.7,0-5.7-5.5-11.4-5.5c-5.7,0-5.7,5.5-11.4,5.5c-5.7,0-5.7-5.5-11.4-5.5c-5.7,0-5.7,5.5-11.4,5.5c-5.7,0-5.7-5.5-11.4-5.5c-3.8,0-5,2.4-7.1,4V27.8z"/><path style="fill-opacity: .5;" d="M288,28v-8.2c-1.2-1.3-2.5-2.2-4.1-2.2c-7.4,0-7.4,6.2-14.7,6.2s-7.4-6.2-14.7-6.2c-7.4,0-7.4,6.2-14.7,6.2c-7.4,0-7.4-6.2-14.7-6.2c-7.4,0-7.4,6.2-14.7,6.2c-7.4,0-7.4-6.2-14.7-6.2c-7.4,0-7.4,6.2-14.7,6.2c-7.4,0-7.4-6.2-14.7-6.2c-7.4,0-7.4,6.2-14.7,6.2c-7.4,0-7.4-6.2-14.7-6.2c-7.4,0-7.4,6.2-14.7,6.2c-7.4,0-7.4-6.2-14.7-6.2c-7.4,0-7.4,6.2-14.7,6.2c-7.4,0-7.4-6.2-14.7-6.2c-7.4,0-7.4,6.2-14.7,6.2c-7.4,0-7.4-6.2-14.7-6.2c-7.4,0-7.4,6.2-14.7,6.2c-7.4,0-7.4-6.2-14.7-6.2c-7.4,0-7.4,6.2-14.7,6.2c-1.6,0-2.9,1.7-4,4.2H288z"/><path style="fill-opacity: .3;" d="M288,22.6c-1,0.3-2.2,0.5-3.5,0.5c-8.6,0-8.6-7.1-17.3-7.1c-8.6,0-8.6,7.1-17.3,7.1c-8.6,0-8.6-7.1-17.3-7.1c-8.6,0-8.6,7.1-17.3,7.1c-8.6,0-8.6-7.1-17.3-7.1c-8.6,0-8.6,7.1-17.3,7.1c-8.6,0-8.6-7.1-17.3-7.1c-8.6,0-8.6,7.1-17.3,7.1c-8.6,0-8.6-7.1-17.3-7.1c-8.6,0-8.6,7.1-17.3,7.1c-8.6,0-8.6-7.1-17.3-7.1c-8.6,0-8.6,7.1-17.3,7.1c-8.6,0-8.6-7.1-17.3-7.1c-8.6,0-8.6,7.1-17.3,7.1c-8.6,0-8.6-7.1-17.3-7.1c-8.6,0-8.6,7.1-17.3,7.1c-4,0-6.1-1.5-8.2-3.2V28h288V22.6z"/></svg>