<svg class="shape-divider-wave-4" xmlns="http://www.w3.org/2000/svg" viewBox="0 0 283.5 27.8" preserveAspectRatio="none" style="width:calc(100% + 1.3px);">
<path d="M283.5,28.2H0V17.4c0,0,6.5,1.6,16.8,0.5c4.8-0.6,10.1-2.5,15.8-3.7s10.5-1.5,12-1.6c5.9-0.2,11,0.5,14.2,0.9
	c7.6,0.9,13.2,3.5,17,4.7c3.9,1.2,9.1,1.9,10.5,2c13.2,0.8,45.3-15.5,63-15.8c16.6-0.3,30,6.1,36.6,9.3c5.9,2.8,6.4,3,18,7.4
	s33.4-3.7,44.7-5.7c8.3-1.5,14.1-1.8,20.9-1.5c6.7,0.3,14,4.6,14,4.6V28.2z M256.7,16.5c-2.9,0.4-5.7,1.8-6,1.9s3.5-1.1,5.8-1.1
	c2.3,0,3.6,0.6,4.3-0.4C261.4,15.9,259.7,16,256.7,16.5z M236.6,20.1c-3.1,0.5-9.1,2-12.4,2.7c-8,1.7-16.8,1-17.6,1.1
	c-0.7,0.1,6.9,1.2,15.1,0.1c4.8-0.7,11.9-2.7,15.1-3.5c3.2-0.7,5.6-0.9,5.6-0.9S239.9,19.5,236.6,20.1z M166.7,12.7
	c-2.4-0.5-2.2-0.8-7.6-1.6s-11.2-0.2-11.2,0c-0.1,0.1,4.9,0.1,8.8,0.5c3.8,0.4,7.9,1.4,10,2c5.2,1.4,20.2,6.8,18.5,6.1
	C183.5,19,170.5,13.5,166.7,12.7z M194,19.5c-3.1-1.2-6.8-3.1-6.6-3c0.2,0.2,2.9,2.2,6.9,3.7s5,1.1,4.8,1.1
	C199,21.3,197,20.7,194,19.5z M278.9,19.5c-3.9-1.9-7.2-2.5-7.4-2.5c-0.2-0.1,3.8,1.3,6.7,2.7s4.7,2.4,4.8,2.5
	S282.8,21.4,278.9,19.5z M25.9,17.3c-3.3,1.1-3.5,1.1-5.7,1.6c-4.3,1-12.2,0.6-12.5,0.7c-0.4,0.1,7.3,1,11.3,0.2
	c2.4-0.4,5.2-1,7.8-2s4.6-1,4.5-1.2C31.2,16.3,29.2,16.2,25.9,17.3z M84.1,22.7c5.2,0.6,6.2,0,6.2-0.3c0-0.3-4,0.3-8.9-0.8
	c-4.9-1-8-2.5-8.4-2.6S78.9,22.1,84.1,22.7z M76.5,23.6c1.6,0.4,2.7,0.3,2.7,0.2c0-0.1,0.4-0.3-1.9-0.6c-2.3-0.4-5.5-1.8-5.7-1.7
	C71.4,21.6,74.8,23.1,76.5,23.6z M98.7,22.8c1.6-0.5,2.5-1.2,2.4-1.3c-0.1-0.1,0.2-0.5-1.9,0.5s-5.5,1.6-5.6,1.8
	C93.5,24,97.1,23.4,98.7,22.8z M67,17.7c1.6,0.4,2.1,0.7,2.5,0.8s-0.6-0.5-2.2-1.2c-1.6-0.7-2-0.5-1.9-0.2
	C65.5,17.4,65.3,17.3,67,17.7z M38.2,15.5c1.5,0.1,1.6-0.1,1.6-0.4s-0.8-0.3-2-0.2c-1.2,0.1-3.5,0.9-3.3,0.9S36.6,15.4,38.2,15.5z
	 M144,6.8c-6.5,0.2-20.1,5.2-16.5,4.1c3.6-1.1,12.2-3.5,17.2-3.5c5.1,0,7.4-0.4,7.5-0.3S150.5,6.6,144,6.8z"/>
<path d="M262.8,4.5c-3.3,0.2-16.6,3-17,3.3s9.3-2.2,16.6-2.9c2.6-0.3,7.1,0.1,7.2,0C269.7,4.9,267.7,4.1,262.8,4.5z"/>
<path d="M218.9,6.3c-7.4,0.6-13-1.1-13.3-1.2c-0.4-0.1,7.3,0.7,12.3,0.5s9.3-1.1,9.5-1.2C227.6,4.3,226.3,5.7,218.9,6.3z"/>
<path d="M208.1,4.8c1.5-0.1,1.6,0.1,1.6,0.4s-0.8,0.4-2,0.3s-3.3-1-3.2-1.1S206.4,4.9,208.1,4.8z"/>
<path d="M194.9,7c-2.1-1-6.2-2.7-6.3-2.6c-0.1,0,4.2,2.2,6.1,3.1c1.9,1,6.3,2.3,6.3,2.2C201,9.6,197,8,194.9,7z"/>
<path d="M147.7,4.5c-3.3,0.2-16.6,3-17,3.3c-0.4,0.3,9.3-2.2,16.6-2.9c2.6-0.3,7.1,0.1,7.2,0C154.6,4.8,152.6,4.1,147.7,4.5z"/>
<path d="M44.7,5.5c1.6,0.1,4.9-0.3,6.7-0.4C55.7,4.8,59.6,7,60,7c0.4,0.1-2.8-2.2-7-2.6c-2.4-0.2-6.5,0.5-8.2,0.7
	C43.1,5.3,41.9,5,41.9,5S43.1,5.4,44.7,5.5z"/>
<path d="M78.5,6c1.6,0.4,3.4,0.1,3.4,0c0-0.2,0.2-0.3-2.1-0.5c-2.3-0.3-4.1-1.2-4.3-1.1S76.9,5.5,78.5,6z"/>
<path d="M22.2,5.8c2.4-0.6,5.1-1.5,5.1-1.4s-2.6,1.5-5,2S15.6,7,15.6,6.9C15.7,6.8,19.9,6.4,22.2,5.8z"/>
</svg>